<svg width="98" height="65" viewBox="0 0 98 65" fill="none" xmlns="http://www.w3.org/2000/svg">
<path d="M86.2455 27.0852C85.8503 25.8861 85.4759 24.8731 85.1846 23.8188C84.9974 23.1573 84.623 22.9712 83.9781 22.9919C81.9396 23.0746 79.8802 22.9712 77.8624 23.2193C75.8446 23.4674 74.4717 22.8678 73.5565 21.0693C73.286 20.5318 72.8284 20.0563 72.4332 19.5808C71.8923 18.9399 71.7883 18.299 72.1003 17.4928C72.9948 15.2187 73.7645 12.9033 74.6589 10.6086C74.9502 9.86437 74.8046 9.40956 74.1389 8.97542C72.9116 8.14849 71.7675 7.25955 70.5818 6.43262C68.9177 5.29559 69.3753 5.2129 67.7112 6.45329C65.8806 7.81772 64.0501 9.16148 62.2403 10.5673C61.6579 11.0221 61.0962 11.0841 60.4098 10.836C59.3073 10.4225 58.2048 10.0091 57.0607 9.76101C56.083 9.5336 55.6254 8.97542 55.3757 8.0658C54.7101 5.7504 53.9612 3.45567 53.2956 1.14027C53.1083 0.478726 52.7755 0.147955 52.0891 0.127281C50.3833 0.106608 48.6984 0.106608 47.0134 0.0239153C46.0774 -0.0174311 45.5573 0.313341 45.2869 1.24364C44.6628 3.49702 43.914 5.70905 43.2691 7.96244C43.0195 8.85138 42.6035 9.36821 41.6466 9.57495C40.4401 9.8437 39.2336 10.2158 38.0895 10.6706C37.299 10.9807 36.7166 10.836 36.0925 10.3605C34.0539 8.81004 31.9946 7.30089 29.9768 5.72973C29.436 5.31626 29.0199 5.31626 28.4999 5.70905C27.0438 6.76339 25.5668 7.79705 24.0899 8.78936C23.4659 9.20283 23.4451 9.63697 23.6947 10.2778C24.61 12.6553 25.4836 15.0534 26.2949 17.4514C26.4405 17.8856 26.2949 18.5471 26.0453 18.9399C25.2964 20.0976 24.3811 21.152 23.6115 22.289C23.1538 22.9505 22.613 23.2193 21.8017 23.1779C19.2431 23.0746 16.6845 23.0125 14.1051 22.9919C13.7514 22.9919 13.1898 23.1573 13.0858 23.4053C12.6073 24.563 12.2537 25.7621 11.7961 27.0852C12.3577 27.0852 12.7322 27.0852 13.1274 27.0852C16.9341 27.0852 20.7616 27.0025 24.5684 27.1265C26.0661 27.1679 27.0646 26.8784 27.5638 25.39C27.7302 24.9145 28.1046 24.501 28.3751 24.0876C34.6572 14.4538 47.5335 10.5673 58.1632 15.0327C63.6756 17.3481 67.8152 21.1106 70.665 26.3409C70.8314 26.6717 71.2891 27.0645 71.6011 27.0645C76.4063 27.1058 81.2323 27.0852 86.2455 27.0852Z" fill="white"/>
<path d="M86.2455 27.0853C81.2115 27.0853 76.4063 27.106 71.5803 27.044C71.2682 27.044 70.8106 26.6512 70.6442 26.3204C67.7943 21.0901 63.6548 17.3276 58.1423 15.0122C47.5335 10.5674 34.6572 14.454 28.3334 24.067C28.0422 24.5012 27.6678 24.894 27.5222 25.3695C27.0229 26.8579 26.0245 27.168 24.5267 27.106C20.72 26.982 16.9133 27.0647 13.0858 27.0647C12.7113 27.0647 12.3369 27.0647 11.7545 27.0647C12.1913 25.7622 12.5449 24.5425 13.0442 23.3848C13.1482 23.1367 13.7098 22.9714 14.0634 22.9714C16.6221 22.992 19.2015 23.0541 21.7601 23.1574C22.5922 23.1988 23.1122 22.93 23.5698 22.2685C24.3603 21.1314 25.2548 20.0771 26.0036 18.9194C26.2533 18.5266 26.3989 17.8651 26.2533 17.4309C25.442 15.0122 24.5475 12.6347 23.6531 10.2573C23.4034 9.61646 23.445 9.18232 24.0483 8.76886C25.546 7.77654 27.0021 6.72221 28.4583 5.68854C28.9783 5.31643 29.3943 5.29575 29.9352 5.70922C31.9529 7.28038 34.0331 8.78953 36.0509 10.34C36.6749 10.8155 37.2574 10.9809 38.0479 10.6501C39.1919 10.1953 40.3985 9.82319 41.605 9.55444C42.5618 9.3477 42.9779 8.83087 43.2275 7.94193C43.8515 5.68854 44.6004 3.47651 45.2453 1.22313C45.5157 0.292833 46.0357 -0.0379389 46.9718 0.0034075C48.6567 0.0861004 50.3625 0.0861004 52.0474 0.106774C52.7547 0.106774 53.0667 0.437545 53.2539 1.11976C53.9196 3.43516 54.6684 5.72989 55.3341 8.04529C55.5837 8.95491 56.0414 9.51309 57.019 9.7405C58.1631 10.0092 59.2656 10.402 60.3681 10.8155C61.0546 11.0843 61.6162 11.0016 62.1987 10.5468C64.0084 9.16165 65.839 7.79721 67.6695 6.43278C69.3337 5.19239 68.8968 5.27508 70.5402 6.41211C71.7259 7.23904 72.8908 8.12799 74.0973 8.91357C74.7629 9.34771 74.9085 9.80252 74.6173 10.5468C73.7436 12.8208 72.9532 15.1362 72.0587 17.4309C71.7467 18.2372 71.8507 18.8781 72.3915 19.5189C72.7868 19.9944 73.2236 20.4699 73.5148 21.0074C74.4301 22.806 75.803 23.4055 77.8208 23.1574C79.8386 22.9093 81.8979 23.0127 83.9365 22.93C84.5814 22.9093 84.9558 23.1161 85.143 23.7569C85.4966 24.8733 85.8711 25.8863 86.2455 27.0853Z" fill="#FF3811"/>
<path d="M65.1109 34.0729C62.6563 31.6541 60.1809 29.2147 57.7055 26.7546C57.2687 26.3204 56.9982 26.6098 56.6862 26.9199C55.5213 28.0983 54.3564 29.2767 53.1707 30.4137C52.4219 31.1373 51.6106 31.8402 50.8201 32.5431C50.8825 32.6464 50.9449 32.7291 51.0073 32.8325C53.3163 32.3777 55.3341 32.8532 56.9982 34.4863C58.6416 36.1195 59.0784 38.1662 58.6624 40.3782C60.8258 38.2695 62.9267 36.2022 65.1109 34.0729Z" fill="white"/>
<path d="M47.1799 32.7085C46.8678 32.357 46.7222 32.1296 46.535 31.9435C44.8709 30.2897 43.1651 28.6772 41.5426 26.982C40.9601 26.3824 40.6065 26.4031 40.0449 26.982C37.8815 29.1733 35.7181 31.3233 33.4923 33.4527C32.9307 33.9902 33.0555 34.321 33.5339 34.7964C35.2813 36.5123 37.0078 38.2489 38.7552 39.9648C38.9008 40.1095 39.1088 40.1922 39.3584 40.3575C38.6303 35.396 42.125 31.9849 47.1799 32.7085Z" fill="white"/>
<path d="M39.088 24.6045C36.4462 27.2713 33.8875 29.8762 31.3497 32.4396C31.5369 32.6877 31.7866 33.0392 32.0154 33.3286C34.6988 30.6617 37.2782 28.1189 40.0241 25.4107C39.7328 25.1627 39.4 24.8732 39.088 24.6045Z" fill="white"/>
<path d="M68.6057 30.6617C68.5433 30.5584 68.5017 30.4343 68.4185 30.331C66.0679 27.9949 63.7381 25.6795 61.3875 23.3434C60.9922 22.9506 60.701 22.9299 60.2642 23.3434C59.8065 23.7982 59.8897 24.1083 60.3058 24.5218C62.4068 26.5684 64.4661 28.6358 66.5463 30.7031C66.8791 31.0339 67.2328 31.3439 67.7112 31.7988C68.0232 31.406 68.2728 31.0959 68.6057 30.6617Z" fill="white"/>
<path d="M66.9415 32.3154C64.5285 29.9173 62.1571 27.5813 59.7857 25.2038C59.3905 24.811 59.0577 24.5009 58.5168 25.0798C57.9968 25.638 58.288 25.9687 58.704 26.3615C60.8258 28.4495 62.9268 30.5375 65.0278 32.6255C65.9638 33.5765 65.9846 33.5765 66.9415 32.3154Z" fill="white"/>
<path d="M38.2143 23.8395C37.2783 22.7025 37.2991 22.7025 36.3006 23.6741C34.262 25.7001 32.2234 27.7054 30.2057 29.7314C29.228 30.703 29.2488 30.8271 30.4137 31.4886C33.0139 28.9458 35.5933 26.403 38.2143 23.8395Z" fill="white"/>
<path d="M65.1109 34.0727C62.9267 36.2227 60.8258 38.2694 58.6624 40.3987C59.0784 38.1867 58.6416 36.1607 56.9982 34.5068C55.3341 32.853 53.2955 32.3982 51.0073 32.853C50.9449 32.7496 50.8825 32.6669 50.8201 32.5636C51.6106 31.8607 52.4011 31.1785 53.1707 30.4342C54.3564 29.2765 55.5213 28.1188 56.6862 26.9404C56.9982 26.6303 57.2687 26.3409 57.7055 26.7751C60.1809 29.1938 62.6563 31.6333 65.1109 34.0727ZM59.4321 30.7236C58.9952 31.3025 58.4752 31.6953 58.5168 31.9847C58.5792 32.3362 59.12 32.6256 59.4528 32.9357C59.7441 32.6256 60.2433 32.3155 60.2641 31.9847C60.3057 31.6539 59.8481 31.2818 59.4321 30.7236Z" fill="white"/>
<path d="M47.1799 32.7083C42.1042 31.9847 38.6303 35.3958 39.3584 40.378C39.1088 40.2127 38.9008 40.13 38.7552 39.9853C37.0078 38.2694 35.2813 36.5328 33.5339 34.817C33.0555 34.3415 32.9307 34.0107 33.4923 33.4732C35.6973 31.3438 37.8815 29.1732 40.0449 27.0025C40.6065 26.4236 40.9601 26.4029 41.5426 27.0025C43.1651 28.6977 44.8709 30.3102 46.535 31.964C46.7222 32.1294 46.8886 32.3568 47.1799 32.7083ZM39.92 32.0467C39.3376 31.5713 38.9632 31.0544 38.6927 31.0958C38.3183 31.1578 38.0063 31.6746 37.6735 31.9847C37.9855 32.2948 38.2559 32.791 38.6095 32.853C38.9008 32.8943 39.296 32.4395 39.92 32.0467Z" fill="white"/>
<path d="M39.088 24.6045C39.4 24.8732 39.7328 25.142 40.0241 25.4107C37.299 28.1189 34.7196 30.6617 32.0154 33.3286C31.7866 33.0185 31.5161 32.6671 31.3497 32.4396C33.8875 29.8762 36.467 27.2713 39.088 24.6045Z" fill="white"/>
<path d="M68.6056 30.6616C68.2728 31.0957 68.0232 31.4058 67.7112 31.8193C67.2327 31.3645 66.8791 31.0544 66.5463 30.7236C64.4661 28.6563 62.4067 26.5889 60.3057 24.5423C59.8689 24.1288 59.7857 23.8187 60.2641 23.3639C60.6802 22.9505 60.9922 22.9711 61.3874 23.3639C63.7172 25.7 66.0678 28.0154 68.4184 30.3515C68.5016 30.4135 68.5432 30.5582 68.6056 30.6616Z" fill="white"/>
<path d="M66.9415 32.3154C66.0054 33.5765 65.9846 33.5765 65.0278 32.6255C62.9268 30.5375 60.8258 28.4289 58.704 26.3615C58.288 25.9687 57.9968 25.638 58.5168 25.0798C59.0577 24.5009 59.3905 24.811 59.7857 25.2038C62.1571 27.5813 64.5285 29.9173 66.9415 32.3154Z" fill="white"/>
<path d="M38.2143 23.8396C35.5933 26.4237 33.0139 28.9458 30.4137 31.5093C29.2488 30.8478 29.228 30.7237 30.2057 29.7521C32.2442 27.7261 34.2828 25.7208 36.3006 23.6948C37.2991 22.7025 37.2991 22.7025 38.2143 23.8396Z" fill="white"/>
<path d="M59.4321 30.7236C59.8273 31.3025 60.285 31.6539 60.2642 31.9847C60.2434 32.3155 59.7441 32.6256 59.4529 32.9357C59.1201 32.6256 58.5792 32.3568 58.5168 31.9847C58.4752 31.6953 58.9953 31.3025 59.4321 30.7236Z" fill="white"/>
<path d="M39.92 32.0469C39.296 32.4397 38.9216 32.8945 38.5887 32.8325C38.2351 32.7912 37.9647 32.2743 37.6526 31.9642C37.9855 31.6541 38.2975 31.1373 38.6719 31.0753C38.9632 31.0546 39.3376 31.5921 39.92 32.0469Z" fill="white"/>
<path d="M6.14517 51.5759C5.71782 51.5759 5.33849 51.6599 5.00717 51.828C4.68066 51.9912 4.40456 52.2289 4.17889 52.541C3.95801 52.8531 3.78995 53.23 3.67471 53.6718C3.55947 54.1136 3.50185 54.6105 3.50185 55.1627C3.50185 55.907 3.59308 56.5432 3.77555 57.0714C3.96281 57.5948 4.25091 57.9957 4.63985 58.2742C5.02878 58.5479 5.53055 58.6847 6.14517 58.6847C6.57251 58.6847 6.99986 58.6367 7.42721 58.5407C7.85936 58.4446 8.32752 58.3078 8.8317 58.1301V60.0028C8.36594 60.1949 7.90738 60.3317 7.45602 60.4133C7.00466 60.4998 6.49809 60.543 5.93629 60.543C4.85112 60.543 3.95801 60.3197 3.25697 59.8731C2.56073 59.4218 2.04455 58.7928 1.70843 57.9861C1.37232 57.1746 1.20426 56.2287 1.20426 55.1483C1.20426 54.3512 1.31229 53.6214 1.52837 52.9588C1.74444 52.2961 2.06135 51.7223 2.4791 51.2374C2.89684 50.7524 3.41302 50.3779 4.02763 50.1138C4.64225 49.8497 5.34809 49.7176 6.14517 49.7176C6.66855 49.7176 7.19193 49.7849 7.71531 49.9193C8.24349 50.0489 8.74767 50.229 9.22783 50.4595L8.50758 52.2745C8.11385 52.0872 7.71771 51.924 7.31917 51.7847C6.92064 51.6455 6.5293 51.5759 6.14517 51.5759ZM14.2048 52.1809C15.2851 52.1809 16.1134 52.4162 16.6896 52.8867C17.2658 53.3573 17.5539 54.0727 17.5539 55.0331V60.3989H16.0198L15.5948 59.3041H15.5372C15.3067 59.5922 15.0715 59.8275 14.8314 60.01C14.5913 60.1925 14.3152 60.3269 14.0031 60.4133C13.691 60.4998 13.3116 60.543 12.8651 60.543C12.3897 60.543 11.9624 60.4517 11.583 60.2693C11.2085 60.0868 10.9132 59.8083 10.6971 59.4338C10.4811 59.0545 10.373 58.5743 10.373 57.9933C10.373 57.1386 10.6731 56.5096 11.2733 56.1062C11.8735 55.6981 12.7739 55.4724 13.9743 55.4292L15.3716 55.386V55.0331C15.3716 54.6105 15.2611 54.3008 15.0402 54.1039C14.8194 53.9071 14.5121 53.8086 14.1183 53.8086C13.7294 53.8086 13.3477 53.8639 12.9731 53.9743C12.5986 54.0847 12.2241 54.224 11.8495 54.392L11.1221 52.9083C11.5494 52.6827 12.0272 52.505 12.5554 52.3753C13.0884 52.2457 13.6382 52.1809 14.2048 52.1809ZM15.3716 56.668L14.5217 56.6968C13.811 56.7161 13.3164 56.8433 13.038 57.0786C12.7643 57.3139 12.6274 57.6236 12.6274 58.0077C12.6274 58.3438 12.7258 58.5839 12.9227 58.7279C13.1196 58.8672 13.3765 58.9368 13.6934 58.9368C14.1639 58.9368 14.5601 58.7976 14.8818 58.5191C15.2083 58.2406 15.3716 57.8444 15.3716 57.3307V56.668ZM24.3171 52.1953C24.4275 52.1953 24.5547 52.2025 24.6988 52.2169C24.8476 52.2265 24.9677 52.2409 25.0589 52.2601L24.8933 54.32C24.8212 54.296 24.718 54.2792 24.5835 54.2696C24.4539 54.2552 24.3411 54.248 24.245 54.248C23.9617 54.248 23.6856 54.284 23.4167 54.356C23.1527 54.4281 22.915 54.5457 22.7037 54.709C22.4924 54.8674 22.3244 55.0787 22.1995 55.3428C22.0795 55.6021 22.0195 55.9214 22.0195 56.3007V60.3989H19.8227V52.3465H21.4865L21.8106 53.7006H21.9186C22.0771 53.4269 22.2739 53.1772 22.5092 52.9515C22.7493 52.7211 23.0206 52.5386 23.3231 52.4042C23.6304 52.2649 23.9617 52.1953 24.3171 52.1953ZM34.523 54.4857H38.7004V59.9452C38.1482 60.1276 37.5744 60.2741 36.979 60.3845C36.3836 60.4902 35.709 60.543 34.9551 60.543C33.9084 60.543 33.0201 60.3365 32.2902 59.9236C31.5604 59.5106 31.0058 58.9008 30.6264 58.0941C30.2471 57.2874 30.0574 56.2959 30.0574 55.1195C30.0574 54.0151 30.2687 53.0596 30.6913 52.2529C31.1186 51.4462 31.7404 50.822 32.5567 50.3803C33.3778 49.9385 34.3789 49.7176 35.5601 49.7176C36.1171 49.7176 36.6669 49.7777 37.2095 49.8977C37.7521 50.0177 38.2443 50.1738 38.686 50.3659L37.9442 52.1521C37.6225 51.9888 37.2551 51.852 36.8422 51.7415C36.4292 51.6311 35.9971 51.5759 35.5457 51.5759C34.8975 51.5759 34.3333 51.7247 33.8532 52.0224C33.3778 52.3201 33.0081 52.7379 32.744 53.2757C32.4847 53.8086 32.355 54.4377 32.355 55.1627C32.355 55.8494 32.4487 56.4592 32.6359 56.9921C32.8232 57.5203 33.1185 57.9357 33.5218 58.2382C33.9252 58.5359 34.451 58.6847 35.0992 58.6847C35.4161 58.6847 35.6826 58.6703 35.8987 58.6415C36.1195 58.6079 36.326 58.5743 36.5181 58.5407V56.3439H34.523V54.4857ZM48.431 52.3465V60.3989H46.7456L46.4503 59.369H46.3351C46.1622 59.6427 45.9461 59.8659 45.6869 60.0388C45.4276 60.2117 45.1419 60.3389 44.8298 60.4205C44.5176 60.5022 44.1935 60.543 43.8574 60.543C43.2812 60.543 42.7794 60.4421 42.3521 60.2405C41.9247 60.034 41.591 59.7147 41.3509 59.2825C41.1157 58.8504 40.998 58.2886 40.998 57.5972V52.3465H43.1948V57.0498C43.1948 57.626 43.298 58.0605 43.5045 58.3534C43.711 58.6463 44.0399 58.7928 44.4912 58.7928C44.9378 58.7928 45.2883 58.6919 45.5428 58.4903C45.7973 58.2838 45.9749 57.9837 46.0758 57.59C46.1814 57.1914 46.2342 56.7064 46.2342 56.1351V52.3465H48.431ZM54.0345 52.1809C55.1149 52.1809 55.9432 52.4162 56.5194 52.8867C57.0956 53.3573 57.3837 54.0727 57.3837 55.0331V60.3989H55.8496L55.4246 59.3041H55.367C55.1365 59.5922 54.9012 59.8275 54.6612 60.01C54.4211 60.1925 54.145 60.3269 53.8329 60.4133C53.5208 60.4998 53.1414 60.543 52.6949 60.543C52.2195 60.543 51.7922 60.4517 51.4128 60.2693C51.0383 60.0868 50.743 59.8083 50.5269 59.4338C50.3109 59.0545 50.2028 58.5743 50.2028 57.9933C50.2028 57.1386 50.5029 56.5096 51.1031 56.1062C51.7033 55.6981 52.6036 55.4724 53.8041 55.4292L55.2013 55.386V55.0331C55.2013 54.6105 55.0909 54.3008 54.87 54.1039C54.6492 53.9071 54.3418 53.8086 53.9481 53.8086C53.5592 53.8086 53.1774 53.8639 52.8029 53.9743C52.4284 54.0847 52.0539 54.224 51.6793 54.392L50.9519 52.9083C51.3792 52.6827 51.857 52.505 52.3852 52.3753C52.9182 52.2457 53.4679 52.1809 54.0345 52.1809ZM55.2013 56.668L54.3515 56.6968C53.6408 56.7161 53.1462 56.8433 52.8677 57.0786C52.594 57.3139 52.4572 57.6236 52.4572 58.0077C52.4572 58.3438 52.5556 58.5839 52.7525 58.7279C52.9494 58.8672 53.2063 58.9368 53.5232 58.9368C53.9937 58.9368 54.3899 58.7976 54.7116 58.5191C55.0381 58.2406 55.2013 57.8444 55.2013 57.3307V56.668ZM64.1468 52.1953C64.2573 52.1953 64.3845 52.2025 64.5286 52.2169C64.6774 52.2265 64.7975 52.2409 64.8887 52.2601L64.723 54.32C64.651 54.296 64.5478 54.2792 64.4133 54.2696C64.2837 54.2552 64.1708 54.248 64.0748 54.248C63.7915 54.248 63.5154 54.284 63.2465 54.356C62.9824 54.4281 62.7448 54.5457 62.5335 54.709C62.3222 54.8674 62.1541 55.0787 62.0293 55.3428C61.9093 55.6021 61.8492 55.9214 61.8492 56.3007V60.3989H59.6525V52.3465H61.3163L61.6404 53.7006H61.7484C61.9069 53.4269 62.1037 53.1772 62.339 52.9515C62.5791 52.7211 62.8504 52.5386 63.1529 52.4042C63.4602 52.2649 63.7915 52.1953 64.1468 52.1953ZM68.9005 60.543C68.0026 60.543 67.2703 60.1925 66.7037 59.4914C66.1419 58.7856 65.861 57.7508 65.861 56.3871C65.861 55.0091 66.1467 53.9671 66.7181 53.2613C67.2895 52.5506 68.0362 52.1953 68.9581 52.1953C69.3422 52.1953 69.6808 52.2481 69.9737 52.3537C70.2666 52.4594 70.5186 52.601 70.7299 52.7787C70.946 52.9564 71.1285 53.1556 71.2773 53.3765H71.3493C71.3205 53.2228 71.2845 52.9972 71.2413 52.6995C71.2029 52.397 71.1837 52.0872 71.1837 51.7703V49.1918H73.3876V60.3989H71.7023L71.2773 59.3546H71.1837C71.0444 59.5754 70.8692 59.7771 70.6579 59.9596C70.4514 60.1372 70.2041 60.2789 69.916 60.3845C69.6279 60.4902 69.2894 60.543 68.9005 60.543ZM69.6712 58.7928C70.2714 58.7928 70.6939 58.6151 70.9388 58.2598C71.1885 57.8997 71.3205 57.3595 71.3349 56.6392V56.4015C71.3349 55.6189 71.2149 55.0211 70.9748 54.6081C70.7347 54.1904 70.2882 53.9815 69.6351 53.9815C69.1502 53.9815 68.7708 54.1904 68.4971 54.6081C68.2234 55.0259 68.0866 55.6285 68.0866 56.4159C68.0866 57.2034 68.2234 57.7964 68.4971 58.195C68.7756 58.5935 69.167 58.7928 69.6712 58.7928ZM77.882 52.3465V60.3989H75.6852V52.3465H77.882ZM76.7872 49.1918C77.1137 49.1918 77.3946 49.2687 77.6299 49.4223C77.8652 49.5712 77.9828 49.8521 77.9828 50.265C77.9828 50.6732 77.8652 50.9565 77.6299 51.1149C77.3946 51.2686 77.1137 51.3454 76.7872 51.3454C76.4559 51.3454 76.1726 51.2686 75.9373 51.1149C75.7068 50.9565 75.5916 50.6732 75.5916 50.265C75.5916 49.8521 75.7068 49.5712 75.9373 49.4223C76.1726 49.2687 76.4559 49.1918 76.7872 49.1918ZM83.4927 52.1809C84.5731 52.1809 85.4014 52.4162 85.9776 52.8867C86.5538 53.3573 86.8419 54.0727 86.8419 55.0331V60.3989H85.3078L84.8828 59.3041H84.8252C84.5947 59.5922 84.3594 59.8275 84.1194 60.01C83.8793 60.1925 83.6032 60.3269 83.2911 60.4133C82.979 60.4998 82.5996 60.543 82.1531 60.543C81.6777 60.543 81.2504 60.4517 80.871 60.2693C80.4965 60.0868 80.2012 59.8083 79.9851 59.4338C79.769 59.0545 79.661 58.5743 79.661 57.9933C79.661 57.1386 79.9611 56.5096 80.5613 56.1062C81.1615 55.6981 82.0618 55.4724 83.2623 55.4292L84.6595 55.386V55.0331C84.6595 54.6105 84.5491 54.3008 84.3282 54.1039C84.1073 53.9071 83.8 53.8086 83.4063 53.8086C83.0174 53.8086 82.6356 53.8639 82.2611 53.9743C81.8866 54.0847 81.5121 54.224 81.1375 54.392L80.4101 52.9083C80.8374 52.6827 81.3152 52.505 81.8434 52.3753C82.3763 52.2457 82.9261 52.1809 83.4927 52.1809ZM84.6595 56.668L83.8096 56.6968C83.099 56.7161 82.6044 56.8433 82.3259 57.0786C82.0522 57.3139 81.9154 57.6236 81.9154 58.0077C81.9154 58.3438 82.0138 58.5839 82.2107 58.7279C82.4076 58.8672 82.6644 58.9368 82.9814 58.9368C83.4519 58.9368 83.8481 58.7976 84.1698 58.5191C84.4963 58.2406 84.6595 57.8444 84.6595 57.3307V56.668ZM93.6843 52.1953C94.5438 52.1953 95.2352 52.4306 95.7586 52.9011C96.282 53.3669 96.5437 54.116 96.5437 55.1483V60.3989H94.3469V55.6957C94.3469 55.1195 94.2413 54.6849 94.03 54.392C93.8235 54.0991 93.497 53.9527 93.0504 53.9527C92.3782 53.9527 91.9197 54.1808 91.6748 54.6369C91.4299 55.0931 91.3074 55.7509 91.3074 56.6104V60.3989H89.1107V52.3465H90.7889L91.0842 53.3765H91.2066C91.3795 53.098 91.5931 52.8723 91.8476 52.6995C92.1069 52.5266 92.3926 52.3994 92.7047 52.3177C93.0216 52.2361 93.3481 52.1953 93.6843 52.1953Z" fill="white"/>
</svg>
