<svg width="132" height="87" viewBox="0 0 132 87" fill="none" xmlns="http://www.w3.org/2000/svg">
<path d="M116.5 36.7241C115.964 35.0984 115.456 33.7249 115.062 32.2953C114.808 31.3984 114.3 31.1461 113.426 31.1741C110.662 31.2863 107.869 31.1461 105.134 31.4825C102.398 31.8188 100.536 31.006 99.2953 28.5673C98.9287 27.8386 98.3082 27.1939 97.7723 26.5492C97.039 25.6802 96.8979 24.8113 97.321 23.7181C98.5338 20.6348 99.5774 17.4954 100.79 14.3841C101.185 13.375 100.988 12.7583 100.085 12.1697C98.421 11.0485 96.8697 9.84319 95.2621 8.72198C93.0057 7.18033 93.6262 7.0682 91.3699 8.75001C88.8879 10.6 86.4059 12.422 83.9521 14.328C83.1624 14.9447 82.4009 15.0288 81.4701 14.6924C79.9753 14.1318 78.4805 13.5712 76.9292 13.2348C75.6036 12.9265 74.9831 12.1697 74.6447 10.9364C73.7421 7.79699 72.7268 4.68564 71.8242 1.54626C71.5704 0.649299 71.1191 0.200816 70.1884 0.172786C67.8756 0.144756 65.5911 0.144756 63.3065 0.0326353C62.0373 -0.0234251 61.3322 0.425058 60.9655 1.68641C60.1194 4.7417 59.1041 7.74093 58.2297 10.7962C57.8913 12.0015 57.3272 12.7023 56.0298 12.9826C54.3939 13.347 52.7581 13.8515 51.2068 14.4682C50.1351 14.8886 49.3453 14.6924 48.4992 14.0477C45.7352 11.9455 42.9429 9.89925 40.2071 7.76896C39.4738 7.20836 38.9097 7.20836 38.2046 7.74093C36.2303 9.17047 34.2278 10.572 32.2253 11.9174C31.3791 12.478 31.3509 13.0667 31.6894 13.9356C32.9304 17.1591 34.115 20.4106 35.2149 23.6621C35.4124 24.2507 35.2149 25.1477 34.8765 25.6802C33.8611 27.2499 32.6201 28.6795 31.5766 30.2211C30.9561 31.1181 30.2227 31.4825 29.1228 31.4264C25.6536 31.2863 22.1845 31.2022 18.6871 31.1741C18.2077 31.1741 17.4462 31.3984 17.3051 31.7347C16.6564 33.3044 16.177 34.9302 15.5565 36.7241C16.318 36.7241 16.8257 36.7241 17.3615 36.7241C22.5229 36.7241 27.7126 36.612 32.874 36.7802C34.9047 36.8362 36.2585 36.4438 36.9354 34.4256C37.161 33.7809 37.6687 33.2203 38.0354 32.6597C46.5531 19.5977 64.0116 14.328 78.4241 20.3825C85.8982 23.5219 91.5109 28.6234 95.3749 35.715C95.6005 36.1635 96.221 36.6961 96.6441 36.6961C103.159 36.7521 109.703 36.7241 116.5 36.7241Z" fill="white"/>
<path d="M116.5 36.7241C109.674 36.7241 103.159 36.7522 96.6159 36.6681C96.1928 36.6681 95.5723 36.1355 95.3467 35.687C91.4827 28.5954 85.87 23.4939 78.3958 20.3545C64.0116 14.328 46.553 19.5977 37.9789 32.6317C37.584 33.2204 37.0764 33.7529 36.8789 34.3976C36.202 36.4158 34.8482 36.8362 32.8175 36.7522C27.6561 36.584 22.4947 36.6961 17.3051 36.6961C16.7974 36.6961 16.2897 36.6961 15.5 36.6961C16.0923 34.9302 16.5718 33.2764 17.2487 31.7067C17.3897 31.3704 18.1512 31.1461 18.6307 31.1461C22.0998 31.1742 25.5972 31.2582 29.0663 31.3984C30.1945 31.4545 30.8996 31.0901 31.5201 30.1931C32.5919 28.6514 33.8047 27.2219 34.82 25.6522C35.1585 25.1196 35.3559 24.2227 35.1585 23.634C34.0585 20.3545 32.8457 17.131 31.6329 13.9076C31.2945 13.0386 31.3509 12.45 32.1688 11.8894C34.1995 10.544 36.1738 9.11442 38.1481 7.71291C38.8532 7.20837 39.4173 7.18034 40.1506 7.74094C42.8865 9.87123 45.7069 11.9174 48.4427 14.0197C49.2889 14.6644 50.0786 14.8886 51.1504 14.4401C52.7016 13.8235 54.3375 13.3189 55.9733 12.9546C57.2707 12.6742 57.8348 11.9735 58.1733 10.7682C59.0194 7.71291 60.0348 4.71369 60.9091 1.6584C61.2757 0.397042 61.9809 -0.0514402 63.2501 0.00462013C65.5346 0.116741 67.8474 0.116741 70.1319 0.144771C71.0909 0.144771 71.5139 0.593253 71.7678 1.51825C72.6703 4.65763 73.6857 7.76897 74.5882 10.9083C74.9267 12.1417 75.5472 12.8985 76.8728 13.2068C78.424 13.5712 79.9189 14.1038 81.4137 14.6644C82.3444 15.0288 83.1059 14.9167 83.8957 14.3C86.3495 12.422 88.8314 10.572 91.3134 8.722C93.5698 7.04019 92.9775 7.15231 95.2056 8.69397C96.8133 9.81517 98.3927 11.0205 100.029 12.0856C100.931 12.6742 101.129 13.2909 100.734 14.3C99.5491 17.3833 98.4773 20.5227 97.2646 23.634C96.8415 24.7272 96.9825 25.5962 97.7158 26.4651C98.2517 27.1098 98.844 27.7545 99.2389 28.4833C100.48 30.9219 102.341 31.7348 105.077 31.3984C107.813 31.062 110.605 31.2022 113.369 31.0901C114.244 31.062 114.751 31.3423 115.005 32.2113C115.485 33.7249 115.992 35.0984 116.5 36.7241Z" fill="#FF3811"/>
<path d="M87.8443 46.1983C84.5162 42.9187 81.1598 39.6112 77.8035 36.2756C77.2112 35.687 76.8446 36.0794 76.4215 36.4998C74.8421 38.0976 73.2626 39.6953 71.655 41.2369C70.6396 42.218 69.5396 43.171 68.4679 44.124C68.5525 44.2642 68.6371 44.3763 68.7217 44.5165C71.8524 43.8998 74.5882 44.5445 76.8446 46.7589C79.0727 48.9733 79.665 51.7482 79.1009 54.7475C82.0342 51.8884 84.8828 49.0854 87.8443 46.1983Z" fill="white"/>
<path d="M63.5321 44.3483C63.109 43.8718 62.9116 43.5634 62.6577 43.3112C60.4014 41.0688 58.0886 38.8824 55.8887 36.5839C55.099 35.7711 54.6195 35.7991 53.858 36.5839C50.9247 39.5551 47.9915 42.4703 44.9736 45.3574C44.2121 46.0862 44.3813 46.5346 45.03 47.1793C47.3992 49.5058 49.7401 51.8604 52.1093 54.1869C52.3067 54.3831 52.5888 54.4952 52.9272 54.7194C51.9401 47.9922 56.6784 43.3672 63.5321 44.3483Z" fill="white"/>
<path d="M52.5606 33.3604C48.9786 36.9763 45.5095 40.5081 42.0685 43.9838C42.3224 44.3202 42.6608 44.7967 42.9711 45.1891C46.6095 41.5732 50.1068 38.1255 53.8298 34.4536C53.4349 34.1172 52.9836 33.7248 52.5606 33.3604Z" fill="white"/>
<path d="M92.5827 41.5733C92.498 41.4332 92.4416 41.265 92.3288 41.1249C89.1417 37.9575 85.9828 34.8181 82.7957 31.6507C82.2599 31.1181 81.865 31.0901 81.2727 31.6507C80.6522 32.2673 80.765 32.6878 81.3291 33.2484C84.1778 36.0234 86.97 38.8264 89.7904 41.6294C90.2417 42.0779 90.7212 42.4983 91.3699 43.115C91.7929 42.5824 92.1314 42.162 92.5827 41.5733Z" fill="white"/>
<path d="M90.3263 43.8157C87.0546 40.5642 83.8393 37.3968 80.624 34.1733C80.0881 33.6408 79.6368 33.2203 78.9035 34.0052C78.1984 34.762 78.5933 35.2105 79.1574 35.743C82.0342 38.5741 84.8829 41.4051 87.7315 44.2362C89.0007 45.5255 89.0289 45.5255 90.3263 43.8157Z" fill="white"/>
<path d="M51.376 32.3233C50.1068 30.7817 50.135 30.7817 48.7812 32.0991C46.0172 34.846 43.2532 37.565 40.5173 40.3119C39.1917 41.6293 39.2199 41.7975 40.7994 42.6945C44.3249 39.2468 47.8223 35.7991 51.376 32.3233Z" fill="white"/>
<path d="M87.8443 46.1983C84.8828 49.1134 82.0342 51.8884 79.1009 54.7755C79.665 51.7763 79.0727 49.0293 76.8446 46.7869C74.5882 44.5445 71.8242 43.9278 68.7217 44.5445C68.6371 44.4043 68.5525 44.2922 68.4679 44.1521C69.5396 43.199 70.6114 42.274 71.655 41.265C73.2626 39.6953 74.8421 38.1256 76.4215 36.5279C76.8446 36.1074 77.2112 35.715 77.8035 36.3036C81.1598 39.5831 84.5162 42.8907 87.8443 46.1983ZM80.1445 41.6574C79.5522 42.4422 78.8471 42.9748 78.9035 43.3672C78.9881 43.8437 79.7214 44.2361 80.1727 44.6566C80.5676 44.2361 81.2445 43.8157 81.2727 43.3672C81.3291 42.9187 80.7086 42.4142 80.1445 41.6574Z" fill="#444444"/>
<path d="M63.5321 44.3483C56.6502 43.3672 51.9401 47.9922 52.9272 54.7475C52.5888 54.5232 52.3067 54.4111 52.1093 54.2149C49.7401 51.8884 47.3992 49.5338 45.03 47.2073C44.3813 46.5627 44.2121 46.1142 44.9736 45.3854C47.9633 42.4983 50.9247 39.5551 53.858 36.6119C54.6195 35.8271 55.099 35.7991 55.8887 36.6119C58.0886 38.9104 60.4014 41.0968 62.6577 43.3392C62.9116 43.5634 63.1372 43.8718 63.5321 44.3483ZM53.6887 43.4513C52.899 42.8066 52.3913 42.1059 52.0247 42.1619C51.517 42.246 51.0939 42.9468 50.6427 43.3672C51.0657 43.7877 51.4324 44.4604 51.9119 44.5445C52.3067 44.6005 52.8426 43.9839 53.6887 43.4513Z" fill="#444444"/>
<path d="M52.5606 33.3604C52.9836 33.7248 53.4349 34.0892 53.8298 34.4536C50.135 38.1255 46.6377 41.5732 42.9711 45.1891C42.6608 44.7687 42.2942 44.2922 42.0685 43.9838C45.5095 40.5081 49.0068 36.9763 52.5606 33.3604Z" fill="#444444"/>
<path d="M92.5827 41.5733C92.1314 42.162 91.7929 42.5824 91.3699 43.143C90.7212 42.5264 90.2417 42.1059 89.7904 41.6574C86.97 38.8544 84.1777 36.0514 81.3291 33.2764C80.7368 32.7158 80.624 32.2953 81.2727 31.6787C81.8368 31.1181 82.2598 31.1461 82.7957 31.6787C85.9546 34.8461 89.1417 37.9855 92.3288 41.1529C92.4416 41.237 92.498 41.4332 92.5827 41.5733Z" fill="#444444"/>
<path d="M90.3263 43.8157C89.0571 45.5255 89.0289 45.5255 87.7315 44.2362C84.8829 41.4051 82.0342 38.546 79.1574 35.743C78.5933 35.2105 78.1984 34.762 78.9035 34.0052C79.6368 33.2203 80.0881 33.6408 80.624 34.1733C83.8393 37.3968 87.0546 40.5642 90.3263 43.8157Z" fill="#444444"/>
<path d="M51.376 32.3233C47.8223 35.8271 44.3249 39.2468 40.7994 42.7225C39.2199 41.8255 39.1917 41.6574 40.5173 40.3399C43.2814 37.593 46.0454 34.8741 48.7812 32.1271C50.135 30.7817 50.135 30.7817 51.376 32.3233Z" fill="#444444"/>
<path d="M80.1445 41.6574C80.6804 42.4423 81.3009 42.9188 81.2727 43.3673C81.2445 43.8157 80.5676 44.2362 80.1727 44.6566C79.7214 44.2362 78.9881 43.8718 78.9035 43.3673C78.8471 42.9748 79.5522 42.4423 80.1445 41.6574Z" fill="white"/>
<path d="M53.6888 43.4513C52.8426 43.9839 52.335 44.6006 51.8837 44.5165C51.4042 44.4604 51.0376 43.7597 50.6145 43.3392C51.0658 42.9187 51.4888 42.218 51.9965 42.1339C52.3914 42.1059 52.8991 42.8347 53.6888 43.4513Z" fill="white"/>
<path d="M7.89453 68.8126C7.3151 68.8126 6.80078 68.9266 6.35156 69.1544C5.90885 69.3758 5.53451 69.698 5.22852 70.1212C4.92904 70.5444 4.70117 71.0555 4.54492 71.6544C4.38867 72.2534 4.31055 72.9272 4.31055 73.6759C4.31055 74.685 4.43424 75.5476 4.68164 76.2638C4.93555 76.9734 5.32617 77.517 5.85352 77.8947C6.38086 78.2657 7.0612 78.4513 7.89453 78.4513C8.47396 78.4513 9.05339 78.3862 9.63281 78.256C10.2188 78.1258 10.8535 77.9402 11.5371 77.6993V80.2384C10.9056 80.4988 10.2839 80.6844 9.67188 80.795C9.0599 80.9122 8.37305 80.9708 7.61133 80.9708C6.13997 80.9708 4.92904 80.6681 3.97852 80.0626C3.03451 79.4506 2.33464 78.5978 1.87891 77.504C1.42318 76.4038 1.19531 75.1212 1.19531 73.6564C1.19531 72.5756 1.3418 71.5861 1.63477 70.6876C1.92773 69.7892 2.35742 69.0112 2.92383 68.3536C3.49023 67.6961 4.1901 67.1883 5.02344 66.8302C5.85677 66.4721 6.8138 66.2931 7.89453 66.2931C8.60417 66.2931 9.3138 66.3842 10.0234 66.5665C10.7396 66.7423 11.4232 66.9865 12.0742 67.299L11.0977 69.7599C10.5638 69.506 10.0267 69.2846 9.48633 69.0958C8.94596 68.907 8.41536 68.8126 7.89453 68.8126ZM18.8223 69.6329C20.2871 69.6329 21.4102 69.9519 22.1914 70.59C22.9727 71.228 23.3633 72.198 23.3633 73.5001V80.7755H21.2832L20.707 79.2911H20.6289C20.3164 79.6818 19.9974 80.0008 19.6719 80.2482C19.3464 80.4956 18.972 80.6779 18.5488 80.795C18.1257 80.9122 17.6113 80.9708 17.0059 80.9708C16.3613 80.9708 15.7819 80.8471 15.2676 80.5997C14.7598 80.3523 14.3594 79.9747 14.0664 79.4669C13.7734 78.9526 13.627 78.3016 13.627 77.5138C13.627 76.3549 14.0339 75.5021 14.8477 74.9552C15.6615 74.4018 16.8822 74.0958 18.5098 74.0372L20.4043 73.9786V73.5001C20.4043 72.9272 20.2546 72.5073 19.9551 72.2404C19.6556 71.9734 19.2389 71.84 18.7051 71.84C18.1777 71.84 17.6602 71.9148 17.1523 72.0646C16.6445 72.2143 16.1367 72.4031 15.6289 72.631L14.6426 70.6193C15.222 70.3133 15.8698 70.0724 16.5859 69.8966C17.3086 69.7208 18.054 69.6329 18.8223 69.6329ZM20.4043 75.7169L19.252 75.756C18.2884 75.782 17.6178 75.9545 17.2402 76.2736C16.8691 76.5926 16.6836 77.0125 16.6836 77.5333C16.6836 77.9891 16.8171 78.3146 17.084 78.5099C17.3509 78.6987 17.6992 78.7931 18.1289 78.7931C18.7669 78.7931 19.304 78.6043 19.7402 78.2267C20.1829 77.8491 20.4043 77.312 20.4043 76.6154V75.7169ZM32.5332 69.6525C32.6829 69.6525 32.8555 69.6622 33.0508 69.6818C33.2526 69.6948 33.4154 69.7143 33.5391 69.7404L33.3145 72.5333C33.2168 72.5008 33.0768 72.478 32.8945 72.465C32.7188 72.4454 32.5658 72.4357 32.4355 72.4357C32.0514 72.4357 31.6771 72.4845 31.3125 72.5822C30.9544 72.6798 30.6322 72.8393 30.3457 73.0607C30.0592 73.2755 29.8314 73.562 29.6621 73.92C29.4993 74.2716 29.418 74.7045 29.418 75.2189V80.7755H26.4395V69.8575H28.6953L29.1348 71.6935H29.2812C29.4961 71.3224 29.763 70.9838 30.082 70.6779C30.4076 70.3654 30.7754 70.118 31.1855 69.9357C31.6022 69.7469 32.0514 69.6525 32.5332 69.6525ZM46.3711 72.7579H52.0352V80.1603C51.2865 80.4077 50.5085 80.6062 49.7012 80.756C48.8939 80.8992 47.9792 80.9708 46.957 80.9708C45.5378 80.9708 44.3333 80.6909 43.3438 80.131C42.3542 79.5711 41.6022 78.7443 41.0879 77.6505C40.5736 76.5568 40.3164 75.2124 40.3164 73.6173C40.3164 72.1199 40.6029 70.8243 41.1758 69.7306C41.7552 68.6368 42.5983 67.7905 43.7051 67.1915C44.8184 66.5926 46.1758 66.2931 47.7773 66.2931C48.5326 66.2931 49.278 66.3745 50.0137 66.5372C50.7493 66.7 51.4167 66.9116 52.0156 67.172L51.0098 69.5939C50.5736 69.3725 50.0755 69.187 49.5156 69.0372C48.9557 68.8875 48.3698 68.8126 47.7578 68.8126C46.8789 68.8126 46.1139 69.0144 45.4629 69.4181C44.8184 69.8217 44.3171 70.3881 43.959 71.1173C43.6074 71.84 43.4316 72.6928 43.4316 73.6759C43.4316 74.6069 43.5586 75.4337 43.8125 76.1564C44.0664 76.8725 44.4668 77.4357 45.0137 77.8458C45.5605 78.2495 46.2734 78.4513 47.1523 78.4513C47.582 78.4513 47.9434 78.4318 48.2363 78.3927C48.5358 78.3471 48.8158 78.3016 49.0762 78.256V75.2775H46.3711V72.7579ZM65.2285 69.8575V80.7755H62.9434L62.543 79.379H62.3867C62.1523 79.7501 61.8594 80.0529 61.5078 80.2872C61.1562 80.5216 60.7689 80.6941 60.3457 80.8048C59.9225 80.9155 59.4831 80.9708 59.0273 80.9708C58.2461 80.9708 57.5658 80.8341 56.9863 80.5607C56.4069 80.2807 55.9544 79.8478 55.6289 79.2618C55.3099 78.6759 55.1504 77.9142 55.1504 76.9767V69.8575H58.1289V76.2345C58.1289 77.0157 58.2689 77.6049 58.5488 78.0021C58.8288 78.3992 59.2747 78.5978 59.8867 78.5978C60.4922 78.5978 60.9674 78.4611 61.3125 78.1876C61.6576 77.9077 61.8984 77.5008 62.0352 76.9669C62.1784 76.4266 62.25 75.769 62.25 74.9943V69.8575H65.2285ZM72.8262 69.6329C74.291 69.6329 75.4141 69.9519 76.1953 70.59C76.9766 71.228 77.3672 72.198 77.3672 73.5001V80.7755H75.2871L74.7109 79.2911H74.6328C74.3203 79.6818 74.0013 80.0008 73.6758 80.2482C73.3503 80.4956 72.9759 80.6779 72.5527 80.795C72.1296 80.9122 71.6152 80.9708 71.0098 80.9708C70.3652 80.9708 69.7858 80.8471 69.2715 80.5997C68.7637 80.3523 68.3633 79.9747 68.0703 79.4669C67.7773 78.9526 67.6309 78.3016 67.6309 77.5138C67.6309 76.3549 68.0378 75.5021 68.8516 74.9552C69.6654 74.4018 70.8861 74.0958 72.5137 74.0372L74.4082 73.9786V73.5001C74.4082 72.9272 74.2585 72.5073 73.959 72.2404C73.6595 71.9734 73.2428 71.84 72.709 71.84C72.1816 71.84 71.6641 71.9148 71.1562 72.0646C70.6484 72.2143 70.1406 72.4031 69.6328 72.631L68.6465 70.6193C69.2259 70.3133 69.8737 70.0724 70.5898 69.8966C71.3125 69.7208 72.0579 69.6329 72.8262 69.6329ZM74.4082 75.7169L73.2559 75.756C72.2923 75.782 71.6217 75.9545 71.2441 76.2736C70.873 76.5926 70.6875 77.0125 70.6875 77.5333C70.6875 77.9891 70.821 78.3146 71.0879 78.5099C71.3548 78.6987 71.7031 78.7931 72.1328 78.7931C72.7708 78.7931 73.3079 78.6043 73.7441 78.2267C74.1868 77.8491 74.4082 77.312 74.4082 76.6154V75.7169ZM86.5371 69.6525C86.6868 69.6525 86.8594 69.6622 87.0547 69.6818C87.2565 69.6948 87.4193 69.7143 87.543 69.7404L87.3184 72.5333C87.2207 72.5008 87.0807 72.478 86.8984 72.465C86.7227 72.4454 86.5697 72.4357 86.4395 72.4357C86.0553 72.4357 85.681 72.4845 85.3164 72.5822C84.9583 72.6798 84.6361 72.8393 84.3496 73.0607C84.0632 73.2755 83.8353 73.562 83.666 73.92C83.5033 74.2716 83.4219 74.7045 83.4219 75.2189V80.7755H80.4434V69.8575H82.6992L83.1387 71.6935H83.2852C83.5 71.3224 83.7669 70.9838 84.0859 70.6779C84.4115 70.3654 84.7793 70.118 85.1895 69.9357C85.6061 69.7469 86.0553 69.6525 86.5371 69.6525ZM92.9824 80.9708C91.765 80.9708 90.7721 80.4956 90.0039 79.545C89.2422 78.588 88.8613 77.185 88.8613 75.3361C88.8613 73.4676 89.2487 72.0548 90.0234 71.0978C90.7982 70.1342 91.8105 69.6525 93.0605 69.6525C93.5814 69.6525 94.0404 69.7241 94.4375 69.8673C94.8346 70.0105 95.1764 70.2026 95.4629 70.4435C95.7559 70.6844 96.0033 70.9545 96.2051 71.254H96.3027C96.2637 71.0457 96.2148 70.7397 96.1562 70.3361C96.1042 69.9259 96.0781 69.506 96.0781 69.0763V65.5802H99.0664V80.7755H96.7812L96.2051 79.3595H96.0781C95.8893 79.659 95.6517 79.9324 95.3652 80.1798C95.0853 80.4207 94.75 80.6128 94.3594 80.756C93.9688 80.8992 93.5098 80.9708 92.9824 80.9708ZM94.0273 78.5978C94.8411 78.5978 95.4141 78.3569 95.7461 77.8751C96.0846 77.3868 96.2637 76.6544 96.2832 75.6779V75.3556C96.2832 74.2944 96.1204 73.4838 95.7949 72.924C95.4694 72.3575 94.8639 72.0743 93.9785 72.0743C93.321 72.0743 92.8066 72.3575 92.4355 72.924C92.0645 73.4904 91.8789 74.3074 91.8789 75.3751C91.8789 76.4428 92.0645 77.2469 92.4355 77.7872C92.8132 78.3276 93.3438 78.5978 94.0273 78.5978ZM105.16 69.8575V80.7755H102.182V69.8575H105.16ZM103.676 65.5802C104.118 65.5802 104.499 65.6844 104.818 65.8927C105.137 66.0945 105.297 66.4754 105.297 67.0353C105.297 67.5887 105.137 67.9728 104.818 68.1876C104.499 68.396 104.118 68.5001 103.676 68.5001C103.227 68.5001 102.842 68.396 102.523 68.1876C102.211 67.9728 102.055 67.5887 102.055 67.0353C102.055 66.4754 102.211 66.0945 102.523 65.8927C102.842 65.6844 103.227 65.5802 103.676 65.5802ZM112.768 69.6329C114.232 69.6329 115.355 69.9519 116.137 70.59C116.918 71.228 117.309 72.198 117.309 73.5001V80.7755H115.229L114.652 79.2911H114.574C114.262 79.6818 113.943 80.0008 113.617 80.2482C113.292 80.4956 112.917 80.6779 112.494 80.795C112.071 80.9122 111.557 80.9708 110.951 80.9708C110.307 80.9708 109.727 80.8471 109.213 80.5997C108.705 80.3523 108.305 79.9747 108.012 79.4669C107.719 78.9526 107.572 78.3016 107.572 77.5138C107.572 76.3549 107.979 75.5021 108.793 74.9552C109.607 74.4018 110.827 74.0958 112.455 74.0372L114.35 73.9786V73.5001C114.35 72.9272 114.2 72.5073 113.9 72.2404C113.601 71.9734 113.184 71.84 112.65 71.84C112.123 71.84 111.605 71.9148 111.098 72.0646C110.59 72.2143 110.082 72.4031 109.574 72.631L108.588 70.6193C109.167 70.3133 109.815 70.0724 110.531 69.8966C111.254 69.7208 111.999 69.6329 112.768 69.6329ZM114.35 75.7169L113.197 75.756C112.234 75.782 111.563 75.9545 111.186 76.2736C110.814 76.5926 110.629 77.0125 110.629 77.5333C110.629 77.9891 110.762 78.3146 111.029 78.5099C111.296 78.6987 111.645 78.7931 112.074 78.7931C112.712 78.7931 113.249 78.6043 113.686 78.2267C114.128 77.8491 114.35 77.312 114.35 76.6154V75.7169ZM126.586 69.6525C127.751 69.6525 128.689 69.9715 129.398 70.6095C130.108 71.241 130.463 72.2566 130.463 73.6564V80.7755H127.484V74.3986C127.484 73.6173 127.341 73.0281 127.055 72.631C126.775 72.2338 126.332 72.0353 125.727 72.0353C124.815 72.0353 124.193 72.3445 123.861 72.963C123.529 73.5815 123.363 74.4734 123.363 75.6388V80.7755H120.385V69.8575H122.66L123.061 71.254H123.227C123.461 70.8764 123.751 70.5704 124.096 70.3361C124.447 70.1017 124.835 69.9292 125.258 69.8185C125.688 69.7078 126.13 69.6525 126.586 69.6525Z" fill="#444444"/>
</svg>
