<svg width="107" height="65" viewBox="0 0 107 65" fill="none" xmlns="http://www.w3.org/2000/svg">
<path d="M90.7455 27.0852C90.3503 25.8861 89.9759 24.8731 89.6846 23.8188C89.4974 23.1573 89.123 22.9712 88.4781 22.9919C86.4396 23.0746 84.3802 22.9712 82.3624 23.2193C80.3446 23.4674 78.9717 22.8678 78.0565 21.0693C77.786 20.5318 77.3284 20.0563 76.9332 19.5808C76.3923 18.9399 76.2883 18.299 76.6003 17.4928C77.4948 15.2187 78.2645 12.9033 79.1589 10.6086C79.4502 9.86437 79.3046 9.40956 78.6389 8.97542C77.4116 8.14849 76.2675 7.25955 75.0818 6.43262C73.4177 5.29559 73.8753 5.2129 72.2112 6.45329C70.3806 7.81772 68.5501 9.16148 66.7403 10.5673C66.1579 11.0221 65.5962 11.0841 64.9098 10.836C63.8073 10.4225 62.7048 10.0091 61.5607 9.76101C60.583 9.5336 60.1254 8.97542 59.8757 8.0658C59.2101 5.7504 58.4612 3.45567 57.7956 1.14027C57.6083 0.478726 57.2755 0.147955 56.5891 0.127281C54.8833 0.106608 53.1984 0.106608 51.5134 0.0239153C50.5774 -0.0174311 50.0573 0.313341 49.7869 1.24364C49.1628 3.49702 48.414 5.70905 47.7691 7.96244C47.5195 8.85138 47.1035 9.36821 46.1466 9.57495C44.9401 9.8437 43.7336 10.2158 42.5895 10.6706C41.799 10.9807 41.2166 10.836 40.5925 10.3605C38.5539 8.81004 36.4946 7.30089 34.4768 5.72973C33.936 5.31626 33.5199 5.31626 32.9999 5.70905C31.5438 6.76339 30.0668 7.79705 28.5899 8.78936C27.9659 9.20283 27.9451 9.63697 28.1947 10.2778C29.11 12.6553 29.9836 15.0534 30.7949 17.4514C30.9405 17.8856 30.7949 18.5471 30.5453 18.9399C29.7964 20.0976 28.8811 21.152 28.1115 22.289C27.6538 22.9505 27.113 23.2193 26.3017 23.1779C23.7431 23.0746 21.1845 23.0125 18.6051 22.9919C18.2514 22.9919 17.6898 23.1573 17.5858 23.4053C17.1073 24.563 16.7537 25.7621 16.2961 27.0852C16.8577 27.0852 17.2322 27.0852 17.6274 27.0852C21.4341 27.0852 25.2616 27.0025 29.0684 27.1265C30.5661 27.1679 31.5646 26.8784 32.0638 25.39C32.2302 24.9145 32.6046 24.501 32.8751 24.0876C39.1572 14.4538 52.0335 10.5673 62.6632 15.0327C68.1756 17.3481 72.3152 21.1106 75.165 26.3409C75.3314 26.6717 75.7891 27.0645 76.1011 27.0645C80.9063 27.1058 85.7323 27.0852 90.7455 27.0852Z" fill="white"/>
<path d="M90.7455 27.0853C85.7115 27.0853 80.9063 27.106 76.0803 27.044C75.7682 27.044 75.3106 26.6512 75.1442 26.3204C72.2943 21.0901 68.1548 17.3276 62.6423 15.0122C52.0335 10.5674 39.1572 14.454 32.8334 24.067C32.5422 24.5012 32.1678 24.894 32.0222 25.3695C31.5229 26.8579 30.5245 27.168 29.0267 27.106C25.22 26.982 21.4133 27.0647 17.5858 27.0647C17.2113 27.0647 16.8369 27.0647 16.2545 27.0647C16.6913 25.7622 17.0449 24.5425 17.5442 23.3848C17.6482 23.1367 18.2098 22.9714 18.5634 22.9714C21.1221 22.992 23.7015 23.0541 26.2601 23.1574C27.0922 23.1988 27.6122 22.93 28.0698 22.2685C28.8603 21.1314 29.7548 20.0771 30.5036 18.9194C30.7533 18.5266 30.8989 17.8651 30.7533 17.4309C29.942 15.0122 29.0475 12.6347 28.1531 10.2573C27.9034 9.61646 27.945 9.18232 28.5483 8.76886C30.046 7.77654 31.5021 6.72221 32.9583 5.68854C33.4783 5.31643 33.8943 5.29575 34.4352 5.70922C36.4529 7.28038 38.5331 8.78953 40.5509 10.34C41.1749 10.8155 41.7574 10.9809 42.5479 10.6501C43.6919 10.1953 44.8985 9.82319 46.105 9.55444C47.0618 9.3477 47.4779 8.83087 47.7275 7.94193C48.3515 5.68854 49.1004 3.47651 49.7453 1.22313C50.0157 0.292833 50.5357 -0.0379389 51.4718 0.0034075C53.1567 0.0861004 54.8625 0.0861004 56.5474 0.106774C57.2547 0.106774 57.5667 0.437545 57.7539 1.11976C58.4196 3.43516 59.1684 5.72989 59.8341 8.04529C60.0837 8.95491 60.5414 9.51309 61.519 9.7405C62.6631 10.0092 63.7656 10.402 64.8681 10.8155C65.5546 11.0843 66.1162 11.0016 66.6987 10.5468C68.5084 9.16165 70.339 7.79721 72.1695 6.43278C73.8337 5.19239 73.3968 5.27508 75.0402 6.41211C76.2259 7.23904 77.3908 8.12799 78.5973 8.91357C79.2629 9.34771 79.4085 9.80252 79.1173 10.5468C78.2436 12.8208 77.4532 15.1362 76.5587 17.4309C76.2467 18.2372 76.3507 18.8781 76.8915 19.5189C77.2868 19.9944 77.7236 20.4699 78.0148 21.0074C78.9301 22.806 80.303 23.4055 82.3208 23.1574C84.3386 22.9093 86.3979 23.0127 88.4365 22.93C89.0814 22.9093 89.4558 23.1161 89.643 23.7569C89.9966 24.8733 90.3711 25.8863 90.7455 27.0853Z" fill="#FF3811"/>
<path d="M69.6109 34.0729C67.1563 31.6541 64.6809 29.2147 62.2055 26.7546C61.7687 26.3204 61.4982 26.6098 61.1862 26.9199C60.0213 28.0983 58.8564 29.2767 57.6707 30.4137C56.9219 31.1373 56.1106 31.8402 55.3201 32.5431C55.3825 32.6464 55.4449 32.7291 55.5073 32.8325C57.8163 32.3777 59.8341 32.8532 61.4982 34.4863C63.1416 36.1195 63.5784 38.1662 63.1624 40.3782C65.3258 38.2695 67.4267 36.2022 69.6109 34.0729Z" fill="white"/>
<path d="M51.6799 32.7085C51.3678 32.357 51.2222 32.1296 51.035 31.9435C49.3709 30.2897 47.6651 28.6772 46.0426 26.982C45.4601 26.3824 45.1065 26.4031 44.5449 26.982C42.3815 29.1733 40.2181 31.3233 37.9923 33.4527C37.4307 33.9902 37.5555 34.321 38.0339 34.7964C39.7813 36.5123 41.5078 38.2489 43.2552 39.9648C43.4008 40.1095 43.6088 40.1922 43.8584 40.3575C43.1303 35.396 46.625 31.9849 51.6799 32.7085Z" fill="white"/>
<path d="M43.588 24.6045C40.9462 27.2713 38.3875 29.8762 35.8497 32.4396C36.0369 32.6877 36.2866 33.0392 36.5154 33.3286C39.1988 30.6617 41.7782 28.1189 44.5241 25.4107C44.2328 25.1627 43.9 24.8732 43.588 24.6045Z" fill="white"/>
<path d="M73.1057 30.6617C73.0433 30.5584 73.0017 30.4343 72.9185 30.331C70.5679 27.9949 68.2381 25.6795 65.8875 23.3434C65.4922 22.9506 65.201 22.9299 64.7642 23.3434C64.3065 23.7982 64.3897 24.1083 64.8058 24.5218C66.9068 26.5684 68.9661 28.6358 71.0463 30.7031C71.3791 31.0339 71.7328 31.3439 72.2112 31.7988C72.5232 31.406 72.7728 31.0959 73.1057 30.6617Z" fill="white"/>
<path d="M71.4415 32.3154C69.0285 29.9173 66.6571 27.5813 64.2857 25.2038C63.8905 24.811 63.5577 24.5009 63.0168 25.0798C62.4968 25.638 62.788 25.9687 63.204 26.3615C65.3258 28.4495 67.4268 30.5375 69.5278 32.6255C70.4638 33.5765 70.4846 33.5765 71.4415 32.3154Z" fill="white"/>
<path d="M42.7143 23.8395C41.7783 22.7025 41.7991 22.7025 40.8006 23.6741C38.762 25.7001 36.7234 27.7054 34.7057 29.7314C33.728 30.703 33.7488 30.8271 34.9137 31.4886C37.5139 28.9458 40.0933 26.403 42.7143 23.8395Z" fill="white"/>
<path d="M69.6109 34.0727C67.4267 36.2227 65.3258 38.2694 63.1624 40.3987C63.5784 38.1867 63.1416 36.1607 61.4982 34.5068C59.8341 32.853 57.7955 32.3982 55.5073 32.853C55.4449 32.7496 55.3825 32.6669 55.3201 32.5636C56.1106 31.8607 56.9011 31.1785 57.6707 30.4342C58.8564 29.2765 60.0213 28.1188 61.1862 26.9404C61.4982 26.6303 61.7687 26.3409 62.2055 26.7751C64.6809 29.1938 67.1563 31.6333 69.6109 34.0727ZM63.9321 30.7236C63.4952 31.3025 62.9752 31.6953 63.0168 31.9847C63.0792 32.3362 63.62 32.6256 63.9528 32.9357C64.2441 32.6256 64.7433 32.3155 64.7641 31.9847C64.8057 31.6539 64.3481 31.2818 63.9321 30.7236Z" fill="white"/>
<path d="M51.6799 32.7083C46.6042 31.9847 43.1303 35.3958 43.8584 40.378C43.6088 40.2127 43.4008 40.13 43.2552 39.9853C41.5078 38.2694 39.7813 36.5328 38.0339 34.817C37.5555 34.3415 37.4307 34.0107 37.9923 33.4732C40.1973 31.3438 42.3815 29.1732 44.5449 27.0025C45.1065 26.4236 45.4601 26.4029 46.0426 27.0025C47.6651 28.6977 49.3709 30.3102 51.035 31.964C51.2222 32.1294 51.3886 32.3568 51.6799 32.7083ZM44.42 32.0467C43.8376 31.5713 43.4632 31.0544 43.1927 31.0958C42.8183 31.1578 42.5063 31.6746 42.1735 31.9847C42.4855 32.2948 42.7559 32.791 43.1095 32.853C43.4008 32.8943 43.796 32.4395 44.42 32.0467Z" fill="white"/>
<path d="M43.588 24.6045C43.9 24.8732 44.2328 25.142 44.5241 25.4107C41.799 28.1189 39.2196 30.6617 36.5154 33.3286C36.2866 33.0185 36.0161 32.6671 35.8497 32.4396C38.3875 29.8762 40.967 27.2713 43.588 24.6045Z" fill="white"/>
<path d="M73.1056 30.6616C72.7728 31.0957 72.5232 31.4058 72.2112 31.8193C71.7327 31.3645 71.3791 31.0544 71.0463 30.7236C68.9661 28.6563 66.9067 26.5889 64.8057 24.5423C64.3689 24.1288 64.2857 23.8187 64.7641 23.3639C65.1802 22.9505 65.4922 22.9711 65.8874 23.3639C68.2172 25.7 70.5678 28.0154 72.9184 30.3515C73.0016 30.4135 73.0432 30.5582 73.1056 30.6616Z" fill="white"/>
<path d="M71.4415 32.3154C70.5054 33.5765 70.4846 33.5765 69.5278 32.6255C67.4268 30.5375 65.3258 28.4289 63.204 26.3615C62.788 25.9687 62.4968 25.638 63.0168 25.0798C63.5577 24.5009 63.8905 24.811 64.2857 25.2038C66.6571 27.5813 69.0285 29.9173 71.4415 32.3154Z" fill="white"/>
<path d="M42.7143 23.8396C40.0933 26.4237 37.5139 28.9458 34.9137 31.5093C33.7488 30.8478 33.728 30.7237 34.7057 29.7521C36.7442 27.7261 38.7828 25.7208 40.8006 23.6948C41.7991 22.7025 41.7991 22.7025 42.7143 23.8396Z" fill="white"/>
<path d="M63.9321 30.7236C64.3273 31.3025 64.785 31.6539 64.7642 31.9847C64.7434 32.3155 64.2441 32.6256 63.9529 32.9357C63.6201 32.6256 63.0792 32.3568 63.0168 31.9847C62.9752 31.6953 63.4953 31.3025 63.9321 30.7236Z" fill="white"/>
<path d="M44.42 32.0469C43.796 32.4397 43.4216 32.8945 43.0887 32.8325C42.7351 32.7912 42.4647 32.2743 42.1526 31.9642C42.4855 31.6541 42.7975 31.1373 43.1719 31.0753C43.4632 31.0546 43.8376 31.5921 44.42 32.0469Z" fill="white"/>
<path d="M6.28766 51.5759C5.86031 51.5759 5.48098 51.6599 5.14967 51.828C4.82315 51.9912 4.54706 52.2289 4.32138 52.541C4.1005 52.8531 3.93245 53.23 3.81721 53.6718C3.70197 54.1136 3.64435 54.6105 3.64435 55.1627C3.64435 55.907 3.73558 56.5432 3.91804 57.0714C4.10531 57.5948 4.39341 57.9957 4.78234 58.2742C5.17127 58.5479 5.67305 58.6847 6.28766 58.6847C6.71501 58.6847 7.14236 58.6367 7.5697 58.5407C8.00185 58.4446 8.47002 58.3078 8.97419 58.1301V60.0028C8.50843 60.1949 8.04987 60.3317 7.59851 60.4133C7.14716 60.4998 6.64058 60.543 6.07879 60.543C4.99361 60.543 4.1005 60.3197 3.39946 59.8731C2.70322 59.4218 2.18704 58.7928 1.85093 57.9861C1.51481 57.1746 1.34675 56.2287 1.34675 55.1483C1.34675 54.3512 1.45479 53.6214 1.67086 52.9588C1.88694 52.2961 2.20385 51.7223 2.62159 51.2374C3.03934 50.7524 3.55552 50.3779 4.17013 50.1138C4.78474 49.8497 5.49059 49.7176 6.28766 49.7176C6.81104 49.7176 7.33442 49.7849 7.8578 49.9193C8.38599 50.0489 8.89016 50.229 9.37033 50.4595L8.65008 52.2745C8.25634 52.0872 7.86021 51.924 7.46167 51.7847C7.06313 51.6455 6.67179 51.5759 6.28766 51.5759ZM14.3472 52.1809C15.4276 52.1809 16.2559 52.4162 16.8321 52.8867C17.4083 53.3573 17.6964 54.0727 17.6964 55.0331V60.3989H16.1623L15.7373 59.3041H15.6797C15.4492 59.5922 15.2139 59.8275 14.9739 60.01C14.7338 60.1925 14.4577 60.3269 14.1456 60.4133C13.8335 60.4998 13.4541 60.543 13.0076 60.543C12.5322 60.543 12.1049 60.4517 11.7255 60.2693C11.351 60.0868 11.0557 59.8083 10.8396 59.4338C10.6236 59.0545 10.5155 58.5743 10.5155 57.9933C10.5155 57.1386 10.8156 56.5096 11.4158 56.1062C12.016 55.6981 12.9164 55.4724 14.1168 55.4292L15.5141 55.386V55.0331C15.5141 54.6105 15.4036 54.3008 15.1827 54.1039C14.9619 53.9071 14.6546 53.8086 14.2608 53.8086C13.8719 53.8086 13.4902 53.8639 13.1156 53.9743C12.7411 54.0847 12.3666 54.224 11.992 54.392L11.2646 52.9083C11.6919 52.6827 12.1697 52.505 12.6979 52.3753C13.2309 52.2457 13.7807 52.1809 14.3472 52.1809ZM15.5141 56.668L14.6642 56.6968C13.9535 56.7161 13.4589 56.8433 13.1804 57.0786C12.9068 57.3139 12.7699 57.6236 12.7699 58.0077C12.7699 58.3438 12.8683 58.5839 13.0652 58.7279C13.2621 58.8672 13.519 58.9368 13.8359 58.9368C14.3064 58.9368 14.7026 58.7976 15.0243 58.5191C15.3508 58.2406 15.5141 57.8444 15.5141 57.3307V56.668ZM24.4595 52.1953C24.57 52.1953 24.6972 52.2025 24.8413 52.2169C24.9901 52.2265 25.1102 52.2409 25.2014 52.2601L25.0357 54.32C24.9637 54.296 24.8605 54.2792 24.726 54.2696C24.5964 54.2552 24.4836 54.248 24.3875 54.248C24.1042 54.248 23.8281 54.284 23.5592 54.356C23.2951 54.4281 23.0575 54.5457 22.8462 54.709C22.6349 54.8674 22.4669 55.0787 22.342 55.3428C22.222 55.6021 22.162 55.9214 22.162 56.3007V60.3989H19.9652V52.3465H21.629L21.9531 53.7006H22.0611C22.2196 53.4269 22.4164 53.1772 22.6517 52.9515C22.8918 52.7211 23.1631 52.5386 23.4656 52.4042C23.7729 52.2649 24.1042 52.1953 24.4595 52.1953ZM34.6655 54.4857H38.8429V59.9452C38.2907 60.1276 37.7169 60.2741 37.1215 60.3845C36.5261 60.4902 35.8515 60.543 35.0976 60.543C34.0509 60.543 33.1626 60.3365 32.4327 59.9236C31.7029 59.5106 31.1483 58.9008 30.7689 58.0941C30.3896 57.2874 30.1999 56.2959 30.1999 55.1195C30.1999 54.0151 30.4112 53.0596 30.8338 52.2529C31.2611 51.4462 31.8829 50.822 32.6992 50.3803C33.5203 49.9385 34.5214 49.7176 35.7026 49.7176C36.2596 49.7176 36.8094 49.7777 37.352 49.8977C37.8946 50.0177 38.3868 50.1738 38.8285 50.3659L38.0867 52.1521C37.765 51.9888 37.3976 51.852 36.9847 51.7415C36.5717 51.6311 36.1396 51.5759 35.6882 51.5759C35.04 51.5759 34.4758 51.7247 33.9957 52.0224C33.5203 52.3201 33.1506 52.7379 32.8865 53.2757C32.6272 53.8086 32.4975 54.4377 32.4975 55.1627C32.4975 55.8494 32.5912 56.4592 32.7784 56.9921C32.9657 57.5203 33.261 57.9357 33.6643 58.2382C34.0677 58.5359 34.5935 58.6847 35.2417 58.6847C35.5586 58.6847 35.8251 58.6703 36.0412 58.6415C36.262 58.6079 36.4685 58.5743 36.6606 58.5407V56.3439H34.6655V54.4857ZM48.5735 52.3465V60.3989H46.8881L46.5928 59.369H46.4776C46.3047 59.6427 46.0886 59.8659 45.8293 60.0388C45.5701 60.2117 45.2844 60.3389 44.9722 60.4205C44.6601 60.5022 44.336 60.543 43.9999 60.543C43.4237 60.543 42.9219 60.4421 42.4946 60.2405C42.0672 60.034 41.7335 59.7147 41.4934 59.2825C41.2582 58.8504 41.1405 58.2886 41.1405 57.5972V52.3465H43.3373V57.0498C43.3373 57.626 43.4405 58.0605 43.647 58.3534C43.8535 58.6463 44.1824 58.7928 44.6337 58.7928C45.0803 58.7928 45.4308 58.6919 45.6853 58.4903C45.9398 58.2838 46.1174 57.9837 46.2183 57.59C46.3239 57.1914 46.3767 56.7064 46.3767 56.1351V52.3465H48.5735ZM54.177 52.1809C55.2574 52.1809 56.0857 52.4162 56.6619 52.8867C57.2381 53.3573 57.5262 54.0727 57.5262 55.0331V60.3989H55.9921L55.5671 59.3041H55.5095C55.279 59.5922 55.0437 59.8275 54.8037 60.01C54.5636 60.1925 54.2875 60.3269 53.9754 60.4133C53.6633 60.4998 53.2839 60.543 52.8374 60.543C52.362 60.543 51.9347 60.4517 51.5553 60.2693C51.1808 60.0868 50.8855 59.8083 50.6694 59.4338C50.4533 59.0545 50.3453 58.5743 50.3453 57.9933C50.3453 57.1386 50.6454 56.5096 51.2456 56.1062C51.8458 55.6981 52.7461 55.4724 53.9466 55.4292L55.3438 55.386V55.0331C55.3438 54.6105 55.2334 54.3008 55.0125 54.1039C54.7916 53.9071 54.4843 53.8086 54.0906 53.8086C53.7017 53.8086 53.3199 53.8639 52.9454 53.9743C52.5709 54.0847 52.1963 54.224 51.8218 54.392L51.0944 52.9083C51.5217 52.6827 51.9995 52.505 52.5277 52.3753C53.0606 52.2457 53.6104 52.1809 54.177 52.1809ZM55.3438 56.668L54.4939 56.6968C53.7833 56.7161 53.2887 56.8433 53.0102 57.0786C52.7365 57.3139 52.5997 57.6236 52.5997 58.0077C52.5997 58.3438 52.6981 58.5839 52.895 58.7279C53.0919 58.8672 53.3487 58.9368 53.6657 58.9368C54.1362 58.9368 54.5324 58.7976 54.8541 58.5191C55.1806 58.2406 55.3438 57.8444 55.3438 57.3307V56.668ZM64.2893 52.1953C64.3998 52.1953 64.527 52.2025 64.6711 52.2169C64.8199 52.2265 64.94 52.2409 65.0312 52.2601L64.8655 54.32C64.7935 54.296 64.6903 54.2792 64.5558 54.2696C64.4262 54.2552 64.3133 54.248 64.2173 54.248C63.934 54.248 63.6579 54.284 63.389 54.356C63.1249 54.4281 62.8872 54.5457 62.676 54.709C62.4647 54.8674 62.2966 55.0787 62.1718 55.3428C62.0518 55.6021 61.9917 55.9214 61.9917 56.3007V60.3989H59.795V52.3465H61.4588L61.7829 53.7006H61.8909C62.0494 53.4269 62.2462 53.1772 62.4815 52.9515C62.7216 52.7211 62.9929 52.5386 63.2954 52.4042C63.6027 52.2649 63.934 52.1953 64.2893 52.1953ZM69.043 60.543C68.1451 60.543 67.4128 60.1925 66.8462 59.4914C66.2844 58.7856 66.0035 57.7508 66.0035 56.3871C66.0035 55.0091 66.2892 53.9671 66.8606 53.2613C67.432 52.5506 68.1787 52.1953 69.1006 52.1953C69.4847 52.1953 69.8232 52.2481 70.1161 52.3537C70.4091 52.4594 70.6611 52.601 70.8724 52.7787C71.0885 52.9564 71.2709 53.1556 71.4198 53.3765H71.4918C71.463 53.2228 71.427 52.9972 71.3838 52.6995C71.3454 52.397 71.3262 52.0872 71.3262 51.7703V49.1918H73.5301V60.3989H71.8447L71.4198 59.3546H71.3262C71.1869 59.5754 71.0117 59.7771 70.8004 59.9596C70.5939 60.1372 70.3466 60.2789 70.0585 60.3845C69.7704 60.4902 69.4319 60.543 69.043 60.543ZM69.8136 58.7928C70.4139 58.7928 70.8364 58.6151 71.0813 58.2598C71.331 57.8997 71.463 57.3595 71.4774 56.6392V56.4015C71.4774 55.6189 71.3574 55.0211 71.1173 54.6081C70.8772 54.1904 70.4307 53.9815 69.7776 53.9815C69.2927 53.9815 68.9133 54.1904 68.6396 54.6081C68.3659 55.0259 68.2291 55.6285 68.2291 56.4159C68.2291 57.2034 68.3659 57.7964 68.6396 58.195C68.9181 58.5935 69.3095 58.7928 69.8136 58.7928ZM78.0245 52.3465V60.3989H75.8277V52.3465H78.0245ZM76.9297 49.1918C77.2562 49.1918 77.5371 49.2687 77.7724 49.4223C78.0077 49.5712 78.1253 49.8521 78.1253 50.265C78.1253 50.6732 78.0077 50.9565 77.7724 51.1149C77.5371 51.2686 77.2562 51.3454 76.9297 51.3454C76.5984 51.3454 76.3151 51.2686 76.0798 51.1149C75.8493 50.9565 75.7341 50.6732 75.7341 50.265C75.7341 49.8521 75.8493 49.5712 76.0798 49.4223C76.3151 49.2687 76.5984 49.1918 76.9297 49.1918ZM83.6352 52.1809C84.7156 52.1809 85.5439 52.4162 86.1201 52.8867C86.6963 53.3573 86.9844 54.0727 86.9844 55.0331V60.3989H85.4503L85.0253 59.3041H84.9677C84.7372 59.5922 84.5019 59.8275 84.2618 60.01C84.0218 60.1925 83.7457 60.3269 83.4336 60.4133C83.1215 60.4998 82.7421 60.543 82.2956 60.543C81.8202 60.543 81.3929 60.4517 81.0135 60.2693C80.639 60.0868 80.3437 59.8083 80.1276 59.4338C79.9115 59.0545 79.8035 58.5743 79.8035 57.9933C79.8035 57.1386 80.1036 56.5096 80.7038 56.1062C81.304 55.6981 82.2043 55.4724 83.4048 55.4292L84.802 55.386V55.0331C84.802 54.6105 84.6916 54.3008 84.4707 54.1039C84.2498 53.9071 83.9425 53.8086 83.5488 53.8086C83.1599 53.8086 82.7781 53.8639 82.4036 53.9743C82.0291 54.0847 81.6545 54.224 81.28 54.392L80.5526 52.9083C80.9799 52.6827 81.4577 52.505 81.9859 52.3753C82.5188 52.2457 83.0686 52.1809 83.6352 52.1809ZM84.802 56.668L83.9521 56.6968C83.2415 56.7161 82.7469 56.8433 82.4684 57.0786C82.1947 57.3139 82.0579 57.6236 82.0579 58.0077C82.0579 58.3438 82.1563 58.5839 82.3532 58.7279C82.5501 58.8672 82.8069 58.9368 83.1239 58.9368C83.5944 58.9368 83.9906 58.7976 84.3123 58.5191C84.6388 58.2406 84.802 57.8444 84.802 57.3307V56.668ZM93.8268 52.1953C94.6863 52.1953 95.3777 52.4306 95.9011 52.9011C96.4245 53.3669 96.6861 54.116 96.6861 55.1483V60.3989H94.4894V55.6957C94.4894 55.1195 94.3838 54.6849 94.1725 54.392C93.966 54.0991 93.6395 53.9527 93.1929 53.9527C92.5207 53.9527 92.0621 54.1808 91.8173 54.6369C91.5724 55.0931 91.4499 55.7509 91.4499 56.6104V60.3989H89.2532V52.3465H90.9314L91.2267 53.3765H91.3491C91.522 53.098 91.7356 52.8723 91.9901 52.6995C92.2494 52.5266 92.5351 52.3994 92.8472 52.3177C93.1641 52.2361 93.4906 52.1953 93.8268 52.1953ZM102.268 52.1953C103.012 52.1953 103.653 52.3393 104.191 52.6274C104.729 52.9107 105.144 53.3237 105.437 53.8663C105.73 54.4089 105.877 55.0715 105.877 55.8542V56.9201H100.684C100.708 57.5395 100.892 58.0269 101.238 58.3822C101.589 58.7327 102.074 58.908 102.693 58.908C103.207 58.908 103.677 58.8552 104.105 58.7496C104.532 58.6439 104.971 58.4855 105.423 58.2742V59.974C105.024 60.1708 104.606 60.3149 104.17 60.4061C103.737 60.4974 103.212 60.543 102.592 60.543C101.786 60.543 101.07 60.3941 100.446 60.0964C99.8264 59.7987 99.3391 59.345 98.9837 58.7351C98.6332 58.1253 98.458 57.3571 98.458 56.4304C98.458 55.4892 98.6164 54.7066 98.9333 54.0823C99.255 53.4533 99.7016 52.9828 100.273 52.6707C100.844 52.3537 101.509 52.1953 102.268 52.1953ZM102.282 53.7582C101.855 53.7582 101.5 53.8951 101.217 54.1688C100.938 54.4425 100.777 54.8722 100.734 55.458H103.817C103.812 55.1315 103.752 54.841 103.637 54.5865C103.526 54.332 103.358 54.1304 103.132 53.9815C102.912 53.8327 102.628 53.7582 102.282 53.7582Z" fill="white"/>
</svg>
