<svg width="144" height="87" viewBox="0 0 144 87" fill="none" xmlns="http://www.w3.org/2000/svg">
<path d="M122.5 36.7241C121.964 35.0984 121.456 33.7249 121.062 32.2953C120.808 31.3984 120.3 31.1461 119.426 31.1741C116.662 31.2863 113.869 31.1461 111.134 31.4825C108.398 31.8188 106.536 31.006 105.295 28.5673C104.929 27.8386 104.308 27.1939 103.772 26.5492C103.039 25.6802 102.898 24.8113 103.321 23.7181C104.534 20.6348 105.577 17.4954 106.79 14.3841C107.185 13.375 106.988 12.7583 106.085 12.1697C104.421 11.0485 102.87 9.84319 101.262 8.72198C99.0057 7.18033 99.6262 7.0682 97.3699 8.75001C94.8879 10.6 92.4059 12.422 89.9521 14.328C89.1624 14.9447 88.4009 15.0288 87.4701 14.6924C85.9753 14.1318 84.4805 13.5712 82.9292 13.2348C81.6036 12.9265 80.9831 12.1697 80.6447 10.9364C79.7421 7.79699 78.7268 4.68564 77.8242 1.54626C77.5704 0.649299 77.1191 0.200816 76.1884 0.172786C73.8756 0.144756 71.5911 0.144756 69.3065 0.0326353C68.0373 -0.0234251 67.3322 0.425058 66.9655 1.68641C66.1194 4.7417 65.1041 7.74093 64.2297 10.7962C63.8913 12.0015 63.3272 12.7023 62.0298 12.9826C60.3939 13.347 58.7581 13.8515 57.2068 14.4682C56.1351 14.8886 55.3453 14.6924 54.4992 14.0477C51.7352 11.9455 48.9429 9.89925 46.2071 7.76896C45.4738 7.20836 44.9097 7.20836 44.2046 7.74093C42.2303 9.17047 40.2278 10.572 38.2253 11.9174C37.3791 12.478 37.3509 13.0667 37.6894 13.9356C38.9304 17.1591 40.115 20.4106 41.2149 23.6621C41.4124 24.2507 41.2149 25.1477 40.8765 25.6802C39.8611 27.2499 38.6201 28.6795 37.5766 30.2211C36.9561 31.1181 36.2227 31.4825 35.1228 31.4264C31.6536 31.2863 28.1845 31.2022 24.6871 31.1741C24.2077 31.1741 23.4462 31.3984 23.3051 31.7347C22.6564 33.3044 22.177 34.9302 21.5565 36.7241C22.318 36.7241 22.8257 36.7241 23.3615 36.7241C28.5229 36.7241 33.7126 36.612 38.874 36.7802C40.9047 36.8362 42.2585 36.4438 42.9354 34.4256C43.161 33.7809 43.6687 33.2203 44.0354 32.6597C52.5531 19.5977 70.0116 14.328 84.4241 20.3825C91.8982 23.5219 97.5109 28.6234 101.375 35.715C101.601 36.1635 102.221 36.6961 102.644 36.6961C109.159 36.7521 115.703 36.7241 122.5 36.7241Z" fill="white"/>
<path d="M122.5 36.7241C115.674 36.7241 109.159 36.7522 102.616 36.6681C102.193 36.6681 101.572 36.1355 101.347 35.687C97.4827 28.5954 91.87 23.4939 84.3958 20.3545C70.0116 14.328 52.553 19.5977 43.9789 32.6317C43.584 33.2204 43.0764 33.7529 42.8789 34.3976C42.202 36.4158 40.8482 36.8362 38.8175 36.7522C33.6561 36.584 28.4947 36.6961 23.3051 36.6961C22.7974 36.6961 22.2897 36.6961 21.5 36.6961C22.0923 34.9302 22.5718 33.2764 23.2487 31.7067C23.3897 31.3704 24.1512 31.1461 24.6307 31.1461C28.0998 31.1742 31.5972 31.2582 35.0663 31.3984C36.1945 31.4545 36.8996 31.0901 37.5201 30.1931C38.5919 28.6514 39.8047 27.2219 40.82 25.6522C41.1585 25.1196 41.3559 24.2227 41.1585 23.634C40.0585 20.3545 38.8457 17.131 37.6329 13.9076C37.2945 13.0386 37.3509 12.45 38.1688 11.8894C40.1995 10.544 42.1738 9.11442 44.1481 7.71291C44.8532 7.20837 45.4173 7.18034 46.1506 7.74094C48.8865 9.87123 51.7069 11.9174 54.4427 14.0197C55.2889 14.6644 56.0786 14.8886 57.1504 14.4401C58.7016 13.8235 60.3375 13.3189 61.9733 12.9546C63.2707 12.6742 63.8348 11.9735 64.1733 10.7682C65.0194 7.71291 66.0348 4.71369 66.9091 1.6584C67.2757 0.397042 67.9809 -0.0514402 69.2501 0.00462013C71.5346 0.116741 73.8474 0.116741 76.1319 0.144771C77.0909 0.144771 77.5139 0.593253 77.7678 1.51825C78.6703 4.65763 79.6857 7.76897 80.5882 10.9083C80.9267 12.1417 81.5472 12.8985 82.8728 13.2068C84.424 13.5712 85.9189 14.1038 87.4137 14.6644C88.3444 15.0288 89.1059 14.9167 89.8957 14.3C92.3495 12.422 94.8314 10.572 97.3134 8.722C99.5698 7.04019 98.9775 7.15231 101.206 8.69397C102.813 9.81517 104.393 11.0205 106.029 12.0856C106.931 12.6742 107.129 13.2909 106.734 14.3C105.549 17.3833 104.477 20.5227 103.265 23.634C102.841 24.7272 102.983 25.5962 103.716 26.4651C104.252 27.1098 104.844 27.7545 105.239 28.4833C106.48 30.9219 108.341 31.7348 111.077 31.3984C113.813 31.062 116.605 31.2022 119.369 31.0901C120.244 31.062 120.751 31.3423 121.005 32.2113C121.485 33.7249 121.992 35.0984 122.5 36.7241Z" fill="#FF3811"/>
<path d="M93.8443 46.1983C90.5162 42.9187 87.1598 39.6112 83.8035 36.2756C83.2112 35.687 82.8446 36.0794 82.4215 36.4998C80.8421 38.0976 79.2626 39.6953 77.655 41.2369C76.6396 42.218 75.5396 43.171 74.4679 44.124C74.5525 44.2642 74.6371 44.3763 74.7217 44.5165C77.8524 43.8998 80.5882 44.5445 82.8446 46.7589C85.0727 48.9733 85.665 51.7482 85.1009 54.7475C88.0342 51.8884 90.8828 49.0854 93.8443 46.1983Z" fill="white"/>
<path d="M69.5321 44.3483C69.109 43.8718 68.9116 43.5634 68.6577 43.3112C66.4014 41.0688 64.0886 38.8824 61.8887 36.5839C61.099 35.7711 60.6195 35.7991 59.858 36.5839C56.9247 39.5551 53.9915 42.4703 50.9736 45.3574C50.2121 46.0862 50.3813 46.5346 51.03 47.1793C53.3992 49.5058 55.7401 51.8604 58.1093 54.1869C58.3067 54.3831 58.5888 54.4952 58.9272 54.7194C57.9401 47.9922 62.6784 43.3672 69.5321 44.3483Z" fill="white"/>
<path d="M58.5606 33.3604C54.9786 36.9763 51.5095 40.5081 48.0685 43.9838C48.3224 44.3202 48.6608 44.7967 48.9711 45.1891C52.6095 41.5732 56.1068 38.1255 59.8298 34.4536C59.4349 34.1172 58.9836 33.7248 58.5606 33.3604Z" fill="white"/>
<path d="M98.5827 41.5733C98.498 41.4332 98.4416 41.265 98.3288 41.1249C95.1417 37.9575 91.9828 34.8181 88.7957 31.6507C88.2599 31.1181 87.865 31.0901 87.2727 31.6507C86.6522 32.2673 86.765 32.6878 87.3291 33.2484C90.1778 36.0234 92.97 38.8264 95.7904 41.6294C96.2417 42.0779 96.7212 42.4983 97.3699 43.115C97.7929 42.5824 98.1314 42.162 98.5827 41.5733Z" fill="white"/>
<path d="M96.3263 43.8157C93.0546 40.5642 89.8393 37.3968 86.624 34.1733C86.0881 33.6408 85.6368 33.2203 84.9035 34.0052C84.1984 34.762 84.5933 35.2105 85.1574 35.743C88.0342 38.5741 90.8829 41.4051 93.7315 44.2362C95.0007 45.5255 95.0289 45.5255 96.3263 43.8157Z" fill="white"/>
<path d="M57.376 32.3233C56.1068 30.7817 56.135 30.7817 54.7812 32.0991C52.0172 34.846 49.2532 37.565 46.5173 40.3119C45.1917 41.6293 45.2199 41.7975 46.7994 42.6945C50.3249 39.2468 53.8223 35.7991 57.376 32.3233Z" fill="white"/>
<path d="M93.8443 46.1983C90.8828 49.1134 88.0342 51.8884 85.1009 54.7755C85.665 51.7763 85.0727 49.0293 82.8446 46.7869C80.5882 44.5445 77.8242 43.9278 74.7217 44.5445C74.6371 44.4043 74.5525 44.2922 74.4679 44.1521C75.5396 43.199 76.6114 42.274 77.655 41.265C79.2626 39.6953 80.8421 38.1256 82.4215 36.5279C82.8446 36.1074 83.2112 35.715 83.8035 36.3036C87.1598 39.5831 90.5162 42.8907 93.8443 46.1983ZM86.1445 41.6574C85.5522 42.4422 84.8471 42.9748 84.9035 43.3672C84.9881 43.8437 85.7214 44.2361 86.1727 44.6566C86.5676 44.2361 87.2445 43.8157 87.2727 43.3672C87.3291 42.9187 86.7086 42.4142 86.1445 41.6574Z" fill="#444444"/>
<path d="M69.5321 44.3483C62.6502 43.3672 57.9401 47.9922 58.9272 54.7475C58.5888 54.5232 58.3067 54.4111 58.1093 54.2149C55.7401 51.8884 53.3992 49.5338 51.03 47.2073C50.3813 46.5627 50.2121 46.1142 50.9736 45.3854C53.9633 42.4983 56.9247 39.5551 59.858 36.6119C60.6195 35.8271 61.099 35.7991 61.8887 36.6119C64.0886 38.9104 66.4014 41.0968 68.6577 43.3392C68.9116 43.5634 69.1372 43.8718 69.5321 44.3483ZM59.6887 43.4513C58.899 42.8066 58.3913 42.1059 58.0247 42.1619C57.517 42.246 57.0939 42.9468 56.6427 43.3672C57.0657 43.7877 57.4324 44.4604 57.9119 44.5445C58.3067 44.6005 58.8426 43.9839 59.6887 43.4513Z" fill="#444444"/>
<path d="M58.5606 33.3604C58.9836 33.7248 59.4349 34.0892 59.8298 34.4536C56.135 38.1255 52.6377 41.5732 48.9711 45.1891C48.6608 44.7687 48.2942 44.2922 48.0685 43.9838C51.5095 40.5081 55.0068 36.9763 58.5606 33.3604Z" fill="#444444"/>
<path d="M98.5827 41.5733C98.1314 42.162 97.7929 42.5824 97.3699 43.143C96.7212 42.5264 96.2417 42.1059 95.7904 41.6574C92.97 38.8544 90.1777 36.0514 87.3291 33.2764C86.7368 32.7158 86.624 32.2953 87.2727 31.6787C87.8368 31.1181 88.2598 31.1461 88.7957 31.6787C91.9546 34.8461 95.1417 37.9855 98.3288 41.1529C98.4416 41.237 98.498 41.4332 98.5827 41.5733Z" fill="#444444"/>
<path d="M96.3263 43.8157C95.0571 45.5255 95.0289 45.5255 93.7315 44.2362C90.8829 41.4051 88.0342 38.546 85.1574 35.743C84.5933 35.2105 84.1984 34.762 84.9035 34.0052C85.6368 33.2203 86.0881 33.6408 86.624 34.1733C89.8393 37.3968 93.0546 40.5642 96.3263 43.8157Z" fill="#444444"/>
<path d="M57.376 32.3233C53.8223 35.8271 50.3249 39.2468 46.7994 42.7225C45.2199 41.8255 45.1917 41.6574 46.5173 40.3399C49.2814 37.593 52.0454 34.8741 54.7812 32.1271C56.135 30.7817 56.135 30.7817 57.376 32.3233Z" fill="#444444"/>
<path d="M86.1445 41.6574C86.6804 42.4423 87.3009 42.9188 87.2727 43.3673C87.2445 43.8157 86.5676 44.2362 86.1727 44.6566C85.7214 44.2362 84.9881 43.8718 84.9035 43.3673C84.8471 42.9748 85.5522 42.4423 86.1445 41.6574Z" fill="white"/>
<path d="M59.6888 43.4513C58.8426 43.9839 58.335 44.6006 57.8837 44.5165C57.4042 44.4604 57.0376 43.7597 56.6145 43.3392C57.0658 42.9187 57.4888 42.218 57.9965 42.1339C58.3914 42.1059 58.8991 42.8347 59.6888 43.4513Z" fill="white"/>
<path d="M7.98633 68.8126C7.4069 68.8126 6.89258 68.9266 6.44336 69.1544C6.00065 69.3758 5.6263 69.698 5.32031 70.1212C5.02083 70.5444 4.79297 71.0555 4.63672 71.6544C4.48047 72.2534 4.40234 72.9272 4.40234 73.6759C4.40234 74.685 4.52604 75.5476 4.77344 76.2638C5.02734 76.9734 5.41797 77.517 5.94531 77.8947C6.47266 78.2657 7.15299 78.4513 7.98633 78.4513C8.56576 78.4513 9.14518 78.3862 9.72461 78.256C10.3105 78.1258 10.9453 77.9402 11.6289 77.6993V80.2384C10.9974 80.4988 10.3757 80.6844 9.76367 80.795C9.15169 80.9122 8.46484 80.9708 7.70312 80.9708C6.23177 80.9708 5.02083 80.6681 4.07031 80.0626C3.1263 79.4506 2.42643 78.5978 1.9707 77.504C1.51497 76.4038 1.28711 75.1212 1.28711 73.6564C1.28711 72.5756 1.43359 71.5861 1.72656 70.6876C2.01953 69.7892 2.44922 69.0112 3.01562 68.3536C3.58203 67.6961 4.2819 67.1883 5.11523 66.8302C5.94857 66.4721 6.9056 66.2931 7.98633 66.2931C8.69596 66.2931 9.4056 66.3842 10.1152 66.5665C10.8314 66.7423 11.515 66.9865 12.166 67.299L11.1895 69.7599C10.6556 69.506 10.1185 69.2846 9.57812 69.0958C9.03776 68.907 8.50716 68.8126 7.98633 68.8126ZM18.9141 69.6329C20.3789 69.6329 21.502 69.9519 22.2832 70.59C23.0645 71.228 23.4551 72.198 23.4551 73.5001V80.7755H21.375L20.7988 79.2911H20.7207C20.4082 79.6818 20.0892 80.0008 19.7637 80.2482C19.4382 80.4956 19.0638 80.6779 18.6406 80.795C18.2174 80.9122 17.7031 80.9708 17.0977 80.9708C16.4531 80.9708 15.8737 80.8471 15.3594 80.5997C14.8516 80.3523 14.4512 79.9747 14.1582 79.4669C13.8652 78.9526 13.7188 78.3016 13.7188 77.5138C13.7188 76.3549 14.1257 75.5021 14.9395 74.9552C15.7533 74.4018 16.974 74.0958 18.6016 74.0372L20.4961 73.9786V73.5001C20.4961 72.9272 20.3464 72.5073 20.0469 72.2404C19.7474 71.9734 19.3307 71.84 18.7969 71.84C18.2695 71.84 17.752 71.9148 17.2441 72.0646C16.7363 72.2143 16.2285 72.4031 15.7207 72.631L14.7344 70.6193C15.3138 70.3133 15.9616 70.0724 16.6777 69.8966C17.4004 69.7208 18.1458 69.6329 18.9141 69.6329ZM20.4961 75.7169L19.3438 75.756C18.3802 75.782 17.7096 75.9545 17.332 76.2736C16.9609 76.5926 16.7754 77.0125 16.7754 77.5333C16.7754 77.9891 16.9089 78.3146 17.1758 78.5099C17.4427 78.6987 17.791 78.7931 18.2207 78.7931C18.8587 78.7931 19.3958 78.6043 19.832 78.2267C20.2747 77.8491 20.4961 77.312 20.4961 76.6154V75.7169ZM32.625 69.6525C32.7747 69.6525 32.9473 69.6622 33.1426 69.6818C33.3444 69.6948 33.5072 69.7143 33.6309 69.7404L33.4062 72.5333C33.3086 72.5008 33.1686 72.478 32.9863 72.465C32.8105 72.4454 32.6576 72.4357 32.5273 72.4357C32.1432 72.4357 31.7689 72.4845 31.4043 72.5822C31.0462 72.6798 30.724 72.8393 30.4375 73.0607C30.151 73.2755 29.9232 73.562 29.7539 73.92C29.5911 74.2716 29.5098 74.7045 29.5098 75.2189V80.7755H26.5312V69.8575H28.7871L29.2266 71.6935H29.373C29.5879 71.3224 29.8548 70.9838 30.1738 70.6779C30.4993 70.3654 30.8672 70.118 31.2773 69.9357C31.694 69.7469 32.1432 69.6525 32.625 69.6525ZM46.4629 72.7579H52.127V80.1603C51.3783 80.4077 50.6003 80.6062 49.793 80.756C48.9857 80.8992 48.071 80.9708 47.0488 80.9708C45.6296 80.9708 44.4251 80.6909 43.4355 80.131C42.446 79.5711 41.694 78.7443 41.1797 77.6505C40.6654 76.5568 40.4082 75.2124 40.4082 73.6173C40.4082 72.1199 40.6947 70.8243 41.2676 69.7306C41.847 68.6368 42.6901 67.7905 43.7969 67.1915C44.9102 66.5926 46.2676 66.2931 47.8691 66.2931C48.6243 66.2931 49.3698 66.3745 50.1055 66.5372C50.8411 66.7 51.5085 66.9116 52.1074 67.172L51.1016 69.5939C50.6654 69.3725 50.1673 69.187 49.6074 69.0372C49.0475 68.8875 48.4616 68.8126 47.8496 68.8126C46.9707 68.8126 46.2057 69.0144 45.5547 69.4181C44.9102 69.8217 44.4089 70.3881 44.0508 71.1173C43.6992 71.84 43.5234 72.6928 43.5234 73.6759C43.5234 74.6069 43.6504 75.4337 43.9043 76.1564C44.1582 76.8725 44.5586 77.4357 45.1055 77.8458C45.6523 78.2495 46.3652 78.4513 47.2441 78.4513C47.6738 78.4513 48.0352 78.4318 48.3281 78.3927C48.6276 78.3471 48.9076 78.3016 49.168 78.256V75.2775H46.4629V72.7579ZM65.3203 69.8575V80.7755H63.0352L62.6348 79.379H62.4785C62.2441 79.7501 61.9512 80.0529 61.5996 80.2872C61.248 80.5216 60.8607 80.6941 60.4375 80.8048C60.0143 80.9155 59.5749 80.9708 59.1191 80.9708C58.3379 80.9708 57.6576 80.8341 57.0781 80.5607C56.4987 80.2807 56.0462 79.8478 55.7207 79.2618C55.4017 78.6759 55.2422 77.9142 55.2422 76.9767V69.8575H58.2207V76.2345C58.2207 77.0157 58.3607 77.6049 58.6406 78.0021C58.9206 78.3992 59.3665 78.5978 59.9785 78.5978C60.584 78.5978 61.0592 78.4611 61.4043 78.1876C61.7493 77.9077 61.9902 77.5008 62.127 76.9669C62.2702 76.4266 62.3418 75.769 62.3418 74.9943V69.8575H65.3203ZM72.918 69.6329C74.3828 69.6329 75.5059 69.9519 76.2871 70.59C77.0684 71.228 77.459 72.198 77.459 73.5001V80.7755H75.3789L74.8027 79.2911H74.7246C74.4121 79.6818 74.0931 80.0008 73.7676 80.2482C73.4421 80.4956 73.0677 80.6779 72.6445 80.795C72.2214 80.9122 71.707 80.9708 71.1016 80.9708C70.457 80.9708 69.8776 80.8471 69.3633 80.5997C68.8555 80.3523 68.4551 79.9747 68.1621 79.4669C67.8691 78.9526 67.7227 78.3016 67.7227 77.5138C67.7227 76.3549 68.1296 75.5021 68.9434 74.9552C69.7572 74.4018 70.9779 74.0958 72.6055 74.0372L74.5 73.9786V73.5001C74.5 72.9272 74.3503 72.5073 74.0508 72.2404C73.7513 71.9734 73.3346 71.84 72.8008 71.84C72.2734 71.84 71.7559 71.9148 71.248 72.0646C70.7402 72.2143 70.2324 72.4031 69.7246 72.631L68.7383 70.6193C69.3177 70.3133 69.9655 70.0724 70.6816 69.8966C71.4043 69.7208 72.1497 69.6329 72.918 69.6329ZM74.5 75.7169L73.3477 75.756C72.3841 75.782 71.7135 75.9545 71.3359 76.2736C70.9648 76.5926 70.7793 77.0125 70.7793 77.5333C70.7793 77.9891 70.9128 78.3146 71.1797 78.5099C71.4466 78.6987 71.7949 78.7931 72.2246 78.7931C72.8626 78.7931 73.3997 78.6043 73.8359 78.2267C74.2786 77.8491 74.5 77.312 74.5 76.6154V75.7169ZM86.6289 69.6525C86.7786 69.6525 86.9512 69.6622 87.1465 69.6818C87.3483 69.6948 87.5111 69.7143 87.6348 69.7404L87.4102 72.5333C87.3125 72.5008 87.1725 72.478 86.9902 72.465C86.8145 72.4454 86.6615 72.4357 86.5312 72.4357C86.1471 72.4357 85.7728 72.4845 85.4082 72.5822C85.0501 72.6798 84.7279 72.8393 84.4414 73.0607C84.1549 73.2755 83.9271 73.562 83.7578 73.92C83.5951 74.2716 83.5137 74.7045 83.5137 75.2189V80.7755H80.5352V69.8575H82.791L83.2305 71.6935H83.377C83.5918 71.3224 83.8587 70.9838 84.1777 70.6779C84.5033 70.3654 84.8711 70.118 85.2812 69.9357C85.6979 69.7469 86.1471 69.6525 86.6289 69.6525ZM93.0742 80.9708C91.8568 80.9708 90.8639 80.4956 90.0957 79.545C89.334 78.588 88.9531 77.185 88.9531 75.3361C88.9531 73.4676 89.3405 72.0548 90.1152 71.0978C90.89 70.1342 91.9023 69.6525 93.1523 69.6525C93.6732 69.6525 94.1322 69.7241 94.5293 69.8673C94.9264 70.0105 95.2682 70.2026 95.5547 70.4435C95.8477 70.6844 96.0951 70.9545 96.2969 71.254H96.3945C96.3555 71.0457 96.3066 70.7397 96.248 70.3361C96.196 69.9259 96.1699 69.506 96.1699 69.0763V65.5802H99.1582V80.7755H96.873L96.2969 79.3595H96.1699C95.9811 79.659 95.7435 79.9324 95.457 80.1798C95.1771 80.4207 94.8418 80.6128 94.4512 80.756C94.0605 80.8992 93.6016 80.9708 93.0742 80.9708ZM94.1191 78.5978C94.9329 78.5978 95.5059 78.3569 95.8379 77.8751C96.1764 77.3868 96.3555 76.6544 96.375 75.6779V75.3556C96.375 74.2944 96.2122 73.4838 95.8867 72.924C95.5612 72.3575 94.9557 72.0743 94.0703 72.0743C93.4128 72.0743 92.8984 72.3575 92.5273 72.924C92.1562 73.4904 91.9707 74.3074 91.9707 75.3751C91.9707 76.4428 92.1562 77.2469 92.5273 77.7872C92.9049 78.3276 93.4355 78.5978 94.1191 78.5978ZM105.252 69.8575V80.7755H102.273V69.8575H105.252ZM103.768 65.5802C104.21 65.5802 104.591 65.6844 104.91 65.8927C105.229 66.0945 105.389 66.4754 105.389 67.0353C105.389 67.5887 105.229 67.9728 104.91 68.1876C104.591 68.396 104.21 68.5001 103.768 68.5001C103.318 68.5001 102.934 68.396 102.615 68.1876C102.303 67.9728 102.146 67.5887 102.146 67.0353C102.146 66.4754 102.303 66.0945 102.615 65.8927C102.934 65.6844 103.318 65.5802 103.768 65.5802ZM112.859 69.6329C114.324 69.6329 115.447 69.9519 116.229 70.59C117.01 71.228 117.4 72.198 117.4 73.5001V80.7755H115.32L114.744 79.2911H114.666C114.354 79.6818 114.035 80.0008 113.709 80.2482C113.383 80.4956 113.009 80.6779 112.586 80.795C112.163 80.9122 111.648 80.9708 111.043 80.9708C110.398 80.9708 109.819 80.8471 109.305 80.5997C108.797 80.3523 108.396 79.9747 108.104 79.4669C107.811 78.9526 107.664 78.3016 107.664 77.5138C107.664 76.3549 108.071 75.5021 108.885 74.9552C109.699 74.4018 110.919 74.0958 112.547 74.0372L114.441 73.9786V73.5001C114.441 72.9272 114.292 72.5073 113.992 72.2404C113.693 71.9734 113.276 71.84 112.742 71.84C112.215 71.84 111.697 71.9148 111.189 72.0646C110.682 72.2143 110.174 72.4031 109.666 72.631L108.68 70.6193C109.259 70.3133 109.907 70.0724 110.623 69.8966C111.346 69.7208 112.091 69.6329 112.859 69.6329ZM114.441 75.7169L113.289 75.756C112.326 75.782 111.655 75.9545 111.277 76.2736C110.906 76.5926 110.721 77.0125 110.721 77.5333C110.721 77.9891 110.854 78.3146 111.121 78.5099C111.388 78.6987 111.736 78.7931 112.166 78.7931C112.804 78.7931 113.341 78.6043 113.777 78.2267C114.22 77.8491 114.441 77.312 114.441 76.6154V75.7169ZM126.678 69.6525C127.843 69.6525 128.781 69.9715 129.49 70.6095C130.2 71.241 130.555 72.2566 130.555 73.6564V80.7755H127.576V74.3986C127.576 73.6173 127.433 73.0281 127.146 72.631C126.867 72.2338 126.424 72.0353 125.818 72.0353C124.907 72.0353 124.285 72.3445 123.953 72.963C123.621 73.5815 123.455 74.4734 123.455 75.6388V80.7755H120.477V69.8575H122.752L123.152 71.254H123.318C123.553 70.8764 123.842 70.5704 124.188 70.3361C124.539 70.1017 124.926 69.9292 125.35 69.8185C125.779 69.7078 126.222 69.6525 126.678 69.6525ZM138.123 69.6525C139.132 69.6525 140.001 69.8478 140.73 70.2384C141.46 70.6225 142.023 71.1824 142.42 71.9181C142.817 72.6538 143.016 73.5522 143.016 74.6134V76.0587H135.975C136.007 76.8986 136.258 77.5594 136.727 78.0411C137.202 78.5164 137.859 78.754 138.699 78.754C139.396 78.754 140.034 78.6824 140.613 78.5392C141.193 78.396 141.788 78.1811 142.4 77.8947V80.1993C141.86 80.4663 141.294 80.6616 140.701 80.7853C140.115 80.909 139.402 80.9708 138.562 80.9708C137.469 80.9708 136.499 80.769 135.652 80.3654C134.812 79.9617 134.152 79.3465 133.67 78.5197C133.195 77.6928 132.957 76.6512 132.957 75.3947C132.957 74.1186 133.172 73.0574 133.602 72.2111C134.038 71.3582 134.643 70.7202 135.418 70.297C136.193 69.8673 137.094 69.6525 138.123 69.6525ZM138.143 71.7716C137.563 71.7716 137.081 71.9572 136.697 72.3282C136.32 72.6993 136.102 73.282 136.043 74.0763H140.223C140.216 73.6336 140.135 73.2397 139.979 72.8947C139.829 72.5496 139.601 72.2762 139.295 72.0743C138.995 71.8725 138.611 71.7716 138.143 71.7716Z" fill="#444444"/>
</svg>
